<svg role="img" viewBox="0 0 24 24" xmlns="http://www.w3.org/2000/svg">
<title>Email</title>
<path d="M12.5,24h-1.1h-0.1c-1.2-0.1-2.4-0.3-3.5-0.7c-2.6-1-4.8-2.8-6.2-5.3c-0.8-1.4-1.4-3-1.5-4.7c0-0.3,0-0.5-0.1-0.8v-1.1
	c0,0,0-0.1,0-0.1c0.1-0.6,0.1-1.1,0.2-1.6c0.4-2.2,1.4-4.2,3-5.8C5,1.8,7.6,0.5,10.4,0.1c1.6-0.2,3.2-0.1,4.8,0.3
	c4.7,1.2,8.1,5.2,8.8,9.9c0.2,1.4,0.2,2.9-0.2,4.4c-0.7,3-2.5,5.7-5.1,7.4c-1.6,1.1-3.4,1.7-5.3,1.9H12.5z M12,12.9
	c2.8-2.2,5.4-4.6,8.1-6.8c-0.1,0-0.2,0-0.4,0H4.3c0,0-0.1,0-0.1,0H3.9C6.6,8.4,9.3,10.7,12,12.9z M3.9,18h0.4h15.7h0.2l-5.8-5.6
	L12,14.2l-2.2-1.8L3.9,18z M9,11.7l-5.8-5c0,0.2,0,0.3,0,0.4c0,3.2,0,6.4,0,9.7c0,0.1,0,0.1,0,0.2c0,0.1,0,0.2,0,0.3L9,11.7z
		M20.9,6.7l-5.8,5l5.8,5.6c0-0.1,0-0.3,0-0.4V7.1C20.9,7,20.9,6.9,20.9,6.7L20.9,6.7z"/>
</svg>
