<svg xmlns="http://www.w3.org/2000/svg" >
    <rect id="backgroundrect" width="100%" height="100%" x="0" y="0" fill="none" stroke="none"/>
    <defs>
        <style>
            .cls-5{fill:#231815}
        </style>
    </defs>
    <g class="currentLayer" style="">
        <g class="">
            <path d="M39.795295524070674,78.93097639985767 a38.59632929486389,38.87160775683832 0 1 1 38.86533401419174,-38.63602225528172 A38.71328786848469,38.98940050761662 0 0 1 39.795295524070674,78.93097639985767 z" id="svg_2" fill="none" fill-opacity="1" opacity="1" style="fill:#0a0a0a"/>
            <path d="M39.87716652560524,3.5436159017469855 A36.257157822447894,36.51575274127236 0 1 1 3.818838278312695,39.96513444239672 A36.35072468134454,36.609986941895 0 0 1 39.87716652560524,3.5436159017469855 z" id="svg_3" fill="none" fill-opacity="1" opacity="1" style="fill:#54c1df"/>
            <path d="M21.117011316828965,54.524318438594335 a7.754353431059017,7.809659376601153 0 0 1 -1.3567194540012764,-6.690628244207322 c0.5263135812935985,-3.3806519473371512 2.3391714724159933,-7.621190975355876 -2.2105170414331137,-10.471775544190688 c-1.9649040368294357,-1.1779275077829794 -0.29239643405200066,-2.7092332679008533 1.2514567377425565,-3.333534847025832 c6.666638696385581,-2.673895442667364 13.333277392771162,-5.312453060101238 20.046699518605063,-7.844997201834642 a4.385946510779988,4.417228154186173 0 0 1 2.8187016242612732,0.14135130093395765 c6.350850547609422,2.3558550155659588 12.666613523132604,4.876619882221534 18.98237649865579,7.373826198721451 c1.2397608803804765,0.4829502781910228 2.7602223374508723,0.8834456308372378 2.5964803343817526,2.673895442667364 c-0.1286544309828799,1.3781751841060856 -1.4151987408116762,1.861125462297108 -2.467825903398873,2.190945164476342 C56.35662954877591,39.96513444239672 51.67828660394392,40.7543458726113 52.62565105027241,47.37429846635165 c0.23391714724159962,1.601981410584853 -2.093558467812314,1.9553596629197467 -3.6140199248827094,2.3558550155659588 a43.39163081331668,43.70111053874854 0 0 1 -16.222154161204916,0.4240539028018743 c-3.6608033543310294,-0.4829502781910228 -6.409329834419822,-1.7433327115188093 -5.625707391160465,-6.29013289156111 c0.46783429448319874,-2.6856747177451967 -1.5087655997083158,-3.710471649516385 -3.4268862070894306,-3.5337825233489384 c-2.2689963282435133,0.17668912616744806 -0.8421017300697587,2.450089216188597 -1.1695857362079967,3.7458094747498762 C21.643324898122565,47.35073991619599 25.51465368497103,51.16722504141284 21.117011316828965,54.524318438594335 z" id="svg_4" fill="none" fill-opacity="1" opacity="1" style="fill:#060606"/>
            <path class="cls-5" d="M58.8712388816231,36.26644206795817 c-3.77776192795183,4.122746277240428 -7.894703719403979,0.6714186794362996 -11.941470366683646,-0.18846840124527725 a32.18699946044407,32.41656501418759 0 0 0 -13.85959097406476,0 c-4.058462504641749,0.9187834560707246 -8.187100153455976,4.3112146784857055 -11.871295222511167,0.1295720258561285 C33.56140355008205,27.726467636531556 46.286496360025055,27.172841707873552 58.8712388816231,36.26644206795817 z" id="svg_5" fill="none" fill-opacity="1" opacity="1"/>
            <path class="cls-5" d="M39.98242924186395,43.4400205903565 c-2.502913475485113,0.2238062264787669 -4.818693233176948,0.47117100311319177 -7.13447299086878,0.6360808542028117 c-1.2514567377425565,0.08245492554480886 -3.204664917209911,1.802229086907959 -3.2982317761065514,-1.1779275077829794 C29.45615761599198,41.14306195017969 29.163761181939982,39.42328778881653 31.67837051478717,38.787206934613735 a33.9179863500319,34.1598977257064 0 0 1 16.67829259832603,0 c2.491217618123033,0.6243015791249826 2.233908756157274,2.273400090021151 2.2105170414331137,4.01673280153996 c0,2.991935869768768 -1.9532081794673548,1.4135130093395758 -3.239752489296151,1.3074995336391073 C44.82451418976506,43.88763304331403 42.321600714279946,43.65204754175744 39.98242924186395,43.4400205903565 z" id="svg_6" fill="none" fill-opacity="1" opacity="1"/>
            <path d="M47.47947381095721,47.115154414639406 a24.034986879074335,24.20641028494023 0 0 1 -14.853738849841557,0 A24.32738331312633,24.50089216188597 0 0 1 47.47947381095721,47.115154414639406 z" id="svg_7" fill="none" fill-opacity="1" opacity="1" style="fill:#2d2828"/>
        </g>
    </g>
</svg>
