<?xml version="1.0" encoding="utf-8"?>
<!-- Generator: Adobe Illustrator 22.0.1, SVG Export Plug-In . SVG Version: 6.00 Build 0)  -->
<svg version="1.1" id="圖層_1" xmlns="https://www.w3.org/2000/svg" xmlns:xlink="https://www.w3.org/1999/xlink" x="0px" y="0px"
	 viewBox="0 0 554.9 594.3" style="enable-background:new 0 0 554.9 594.3;" xml:space="preserve">
<style type="text/css">
	.st0{fill:url(#SVGID_1_);}
	.st1{fill:url(#SVGID_2_);}
	.st2{fill:none;}
	.st3{fill:url(#SVGID_3_);}
	.st4{fill:url(#SVGID_4_);}
	.st5{fill:url(#SVGID_5_);}
	.st6{fill:url(#SVGID_6_);}
	.st7{fill:url(#SVGID_7_);}
	.st8{fill:url(#SVGID_8_);}
	.st9{fill:url(#SVGID_9_);}
	.st10{fill:url(#SVGID_10_);}
	.st11{fill:url(#SVGID_11_);}
	.st12{fill:url(#SVGID_12_);}
	.st13{fill:url(#SVGID_13_);}
	.st14{fill:url(#SVGID_14_);}
	.st15{fill:url(#SVGID_15_);}
	.st16{fill:url(#SVGID_16_);}
	.st17{fill:url(#SVGID_17_);}
	.st18{fill:url(#SVGID_18_);}
	.st19{fill:url(#SVGID_19_);}
	.st20{fill:#F8B62D;}
	.st21{fill:url(#SVGID_20_);}
	.st22{fill:url(#SVGID_21_);}
	.st23{fill:url(#SVGID_22_);}
	.st24{fill:url(#SVGID_23_);}
	.st25{fill:url(#SVGID_24_);}
	.st26{fill:url(#SVGID_25_);}
	.st27{fill:url(#SVGID_26_);}
	.st28{fill:url(#SVGID_27_);}
	.st29{fill:url(#SVGID_28_);}
	.st30{fill:url(#SVGID_29_);}
	.st31{fill:url(#SVGID_30_);}
	.st32{fill:url(#SVGID_31_);}
	.st33{fill:url(#SVGID_32_);}
	.st34{fill:url(#SVGID_33_);}
	.st35{fill:url(#SVGID_34_);}
	.st36{fill:url(#SVGID_35_);}
	.st37{fill:url(#SVGID_36_);}
	.st38{fill:url(#SVGID_37_);}
	.st39{fill:url(#SVGID_38_);}
	.st40{fill:url(#SVGID_39_);}
	.st41{fill:url(#SVGID_40_);}
	.st42{fill:url(#SVGID_41_);}
	.st43{fill:url(#SVGID_42_);}
	.st44{fill:url(#SVGID_43_);}
	.st45{fill:url(#SVGID_44_);}
	.st46{fill:url(#SVGID_45_);}
	.st47{fill:url(#SVGID_46_);}
	.st48{fill:url(#SVGID_47_);}
	.st49{fill:url(#SVGID_48_);}
	.st50{fill:url(#SVGID_49_);}
	.st51{fill:url(#SVGID_50_);}
	.st52{fill:url(#SVGID_51_);}
	.st53{fill:url(#SVGID_52_);}
	.st54{fill:url(#SVGID_53_);}
	.st55{fill:url(#SVGID_54_);}
	.st56{fill:url(#SVGID_55_);}
	.st57{fill:url(#SVGID_56_);}
	.st58{fill:url(#SVGID_57_);}
	.st59{fill:url(#SVGID_58_);}
	.st60{fill:url(#SVGID_59_);}
	.st61{fill:url(#SVGID_60_);}
	.st62{fill:url(#SVGID_61_);}
	.st63{fill:url(#SVGID_62_);}
	.st64{fill:url(#SVGID_63_);}
	.st65{fill:url(#SVGID_64_);}
	.st66{fill:url(#SVGID_65_);}
	.st67{fill:url(#SVGID_66_);}
	.st68{fill:url(#SVGID_67_);}
	.st69{fill:url(#SVGID_68_);}
	.st70{fill:url(#SVGID_69_);}
	.st71{fill:url(#SVGID_70_);}
	.st72{fill:url(#SVGID_71_);}
	.st73{fill:url(#SVGID_72_);}
	.st74{fill:url(#SVGID_73_);}
	.st75{fill:url(#SVGID_74_);}
	.st76{fill:url(#SVGID_75_);}
	.st77{fill:url(#SVGID_76_);}
	.st78{fill:url(#SVGID_77_);}
	.st79{fill:url(#SVGID_78_);}
	.st80{fill:url(#SVGID_79_);}
	.st81{fill:url(#SVGID_80_);}
	.st82{fill:url(#SVGID_81_);}
	.st83{fill:url(#SVGID_82_);}
	.st84{fill:url(#SVGID_83_);}
	.st85{fill:url(#SVGID_84_);}
	.st86{fill:url(#SVGID_85_);}
	.st87{fill:url(#SVGID_86_);}
	.st88{fill:url(#SVGID_87_);}
	.st89{fill:url(#SVGID_88_);}
	.st90{fill:url(#SVGID_89_);}
	.st91{fill:url(#SVGID_90_);}
	.st92{fill:url(#SVGID_91_);}
	.st93{fill:url(#SVGID_92_);}
	.st94{fill:url(#SVGID_93_);}
	.st95{fill:url(#SVGID_94_);}
	.st96{fill:url(#SVGID_95_);}
	.st97{fill:url(#SVGID_96_);}
	.st98{fill:url(#SVGID_97_);}
	.st99{fill:url(#SVGID_98_);}
	.st100{fill:url(#SVGID_99_);}
	.st101{fill:url(#SVGID_100_);}
	.st102{fill:url(#SVGID_101_);}
	.st103{fill:url(#SVGID_102_);}
	.st104{fill:url(#SVGID_103_);}
	.st105{fill:url(#SVGID_104_);}
	.st106{fill:url(#SVGID_105_);}
	.st107{fill:url(#SVGID_106_);}
	.st108{fill:url(#SVGID_107_);}
	.st109{fill:url(#SVGID_108_);}
	.st110{fill:url(#SVGID_109_);}
	.st111{fill:url(#SVGID_110_);}
	.st112{fill:url(#SVGID_111_);}
	.st113{fill:url(#SVGID_112_);}
	.st114{fill:url(#SVGID_113_);}
	.st115{fill:url(#SVGID_114_);}
	.st116{fill:url(#SVGID_115_);}
	.st117{fill:url(#SVGID_116_);}
	.st118{fill:url(#SVGID_117_);}
	.st119{fill:url(#SVGID_118_);}
	.st120{fill:url(#SVGID_119_);}
	.st121{fill:url(#SVGID_120_);}
	.st122{fill:url(#SVGID_121_);}
	.st123{fill:url(#SVGID_122_);}
	.st124{fill:url(#SVGID_123_);}
	.st125{fill:url(#SVGID_124_);}
	.st126{fill:url(#SVGID_125_);}
	.st127{fill:url(#SVGID_126_);}
	.st128{fill:url(#SVGID_127_);}
	.st129{fill:url(#SVGID_128_);}
	.st130{fill:url(#SVGID_129_);}
	.st131{fill:url(#SVGID_130_);}
	.st132{fill:url(#SVGID_131_);}
</style>
<linearGradient id="SVGID_1_" gradientUnits="userSpaceOnUse" x1="11.9103" y1="142.2777" x2="76.2542" y2="142.2777">
	<stop  offset="0" style="stop-color:#EA5514"/>
	<stop  offset="1" style="stop-color:#F39800"/>
</linearGradient>
<polygon class="st0" points="34.9,131.9 11.9,160 76.3,124.6 "/>
<linearGradient id="SVGID_2_" gradientUnits="userSpaceOnUse" x1="249.095" y1="525.876" x2="362.9122" y2="525.876">
	<stop  offset="0" style="stop-color:#F39800"/>
	<stop  offset="1" style="stop-color:#F8B62D"/>
</linearGradient>
<polygon class="st1" points="328.4,527.3 334.9,526.6 332.9,524.4 "/>
<polygon class="st2" points="273.8,396.9 233.5,414 273.8,396.9 "/>
<linearGradient id="SVGID_3_" gradientUnits="userSpaceOnUse" x1="233.5235" y1="399.8144" x2="340.547" y2="399.8144">
	<stop  offset="0" style="stop-color:#000000"/>
	<stop  offset="1" style="stop-color:#595757"/>
</linearGradient>
<polygon class="st3" points="254.8,385.7 233.5,414 273.8,396.9 "/>
<linearGradient id="SVGID_4_" gradientUnits="userSpaceOnUse" x1="331.0258" y1="373.0435" x2="466.8977" y2="373.0435">
	<stop  offset="0" style="stop-color:#595757"/>
	<stop  offset="1" style="stop-color:#898989"/>
</linearGradient>
<polygon class="st4" points="331,430.9 397.3,374.4 397.3,374.4 397.3,374.4 466.9,315.2 372.5,355.1 "/>
<linearGradient id="SVGID_5_" gradientUnits="userSpaceOnUse" x1="351.5593" y1="267.8084" x2="425.7741" y2="267.8084">
	<stop  offset="0" style="stop-color:#595757"/>
	<stop  offset="1" style="stop-color:#898989"/>
</linearGradient>
<polygon class="st5" points="425.8,257.9 351.6,257.1 394.1,278.5 "/>
<linearGradient id="SVGID_6_" gradientUnits="userSpaceOnUse" x1="381.3723" y1="312.7581" x2="466.8977" y2="312.7581">
	<stop  offset="0" style="stop-color:#898989"/>
	<stop  offset="1" style="stop-color:#B5B5B6"/>
</linearGradient>
<polygon class="st6" points="381.4,339 466.9,315.2 410.1,286.6 "/>
<linearGradient id="SVGID_7_" gradientUnits="userSpaceOnUse" x1="497.2119" y1="345.1983" x2="541.5576" y2="345.1983">
	<stop  offset="0" style="stop-color:#EA5514"/>
	<stop  offset="1" style="stop-color:#F39800"/>
</linearGradient>
<polygon class="st7" points="497.2,384.6 508.4,410.3 541.6,280.1 "/>
<linearGradient id="SVGID_8_" gradientUnits="userSpaceOnUse" x1="278.9936" y1="305.3222" x2="351.5593" y2="305.3222">
	<stop  offset="0" style="stop-color:#727171"/>
	<stop  offset="1" style="stop-color:#B5B5B6"/>
</linearGradient>
<polygon class="st8" points="345.3,310.3 351.6,257.1 279,353.5 "/>
<linearGradient id="SVGID_9_" gradientUnits="userSpaceOnUse" x1="278.9936" y1="305.3222" x2="351.5593" y2="305.3222">
	<stop  offset="0" style="stop-color:#000000"/>
	<stop  offset="1" style="stop-color:#595757"/>
</linearGradient>
<polygon class="st9" points="345.3,310.3 351.6,257.1 279,353.5 "/>
<linearGradient id="SVGID_10_" gradientUnits="userSpaceOnUse" x1="254.8161" y1="383.2679" x2="340.547" y2="383.2679">
	<stop  offset="0" style="stop-color:#000000"/>
	<stop  offset="1" style="stop-color:#595757"/>
</linearGradient>
<polygon class="st10" points="273.8,396.9 338.3,369.6 273.8,396.9 "/>
<linearGradient id="SVGID_11_" gradientUnits="userSpaceOnUse" x1="233.5235" y1="373.6283" x2="340.547" y2="373.6283">
	<stop  offset="0" style="stop-color:#727171"/>
	<stop  offset="1" style="stop-color:#B5B5B6"/>
</linearGradient>
<polygon class="st11" points="273.8,396.9 338.3,369.6 340.5,350.3 265.7,371.2 254.8,385.7 "/>
<linearGradient id="SVGID_12_" gradientUnits="userSpaceOnUse" x1="254.8161" y1="373.6283" x2="340.547" y2="373.6283">
	<stop  offset="0" style="stop-color:#000000"/>
	<stop  offset="1" style="stop-color:#595757"/>
</linearGradient>
<polygon class="st12" points="273.8,396.9 338.3,369.6 340.5,350.3 265.7,371.2 254.8,385.7 "/>
<linearGradient id="SVGID_13_" gradientUnits="userSpaceOnUse" x1="425.7741" y1="250.9533" x2="479.4788" y2="250.9533">
	<stop  offset="0" style="stop-color:#EA5514"/>
	<stop  offset="1" style="stop-color:#F39800"/>
</linearGradient>
<polygon class="st13" points="476.1,267.5 479.5,250.2 446.5,234.4 425.8,257.9 "/>
<linearGradient id="SVGID_14_" gradientUnits="userSpaceOnUse" x1="422.1188" y1="240.2549" x2="446.4914" y2="240.2549">
	<stop  offset="0" style="stop-color:#F8B62D"/>
	<stop  offset="1" style="stop-color:#FAEE00"/>
</linearGradient>
<polygon class="st14" points="446.5,234.4 422.1,222.7 425.8,257.9 "/>
<linearGradient id="SVGID_15_" gradientUnits="userSpaceOnUse" x1="176.9223" y1="395.9124" x2="241.6781" y2="395.9124">
	<stop  offset="0" style="stop-color:#F8B62D"/>
	<stop  offset="1" style="stop-color:#FAEE00"/>
</linearGradient>
<polygon class="st15" points="241.7,377.9 178.9,387.3 176.9,403.3 233.5,414 "/>
<linearGradient id="SVGID_16_" gradientUnits="userSpaceOnUse" x1="378.6593" y1="231.8128" x2="425.7741" y2="231.8128">
	<stop  offset="0" style="stop-color:#F39800"/>
	<stop  offset="1" style="stop-color:#F8B62D"/>
</linearGradient>
<polygon class="st16" points="422.1,222.7 387,205.8 378.7,217.9 425.8,257.9 "/>
<linearGradient id="SVGID_17_" gradientUnits="userSpaceOnUse" x1="425.7741" y1="286.5034" x2="476.1282" y2="286.5034">
	<stop  offset="0" style="stop-color:#F8B62D"/>
	<stop  offset="1" style="stop-color:#FAEE00"/>
</linearGradient>
<polygon class="st17" points="466.9,315.2 476.1,267.5 425.8,257.9 "/>
<linearGradient id="SVGID_18_" gradientUnits="userSpaceOnUse" x1="351.5593" y1="237.8612" x2="425.7741" y2="237.8612">
	<stop  offset="0" style="stop-color:#F39800"/>
	<stop  offset="1" style="stop-color:#F8B62D"/>
</linearGradient>
<polygon class="st18" points="378.7,217.9 351.6,257.1 425.8,257.9 "/>
<linearGradient id="SVGID_19_" gradientUnits="userSpaceOnUse" x1="241.6781" y1="317.4847" x2="351.5593" y2="317.4847">
	<stop  offset="0" style="stop-color:#F8B62D"/>
	<stop  offset="1" style="stop-color:#FAEE00"/>
</linearGradient>
<polygon class="st19" points="296.9,260.9 241.7,377.9 351.6,257.1 "/>
<polygon class="st20" points="135.4,529 134.5,503.6 118.9,517.7 "/>
<linearGradient id="SVGID_20_" gradientUnits="userSpaceOnUse" x1="296.9425" y1="251.2629" x2="351.5593" y2="251.2629">
	<stop  offset="0" style="stop-color:#EA5514"/>
	<stop  offset="1" style="stop-color:#F39800"/>
</linearGradient>
<polygon class="st21" points="306,241.6 296.9,260.9 351.6,257.1 "/>
<linearGradient id="SVGID_21_" gradientUnits="userSpaceOnUse" x1="172.7508" y1="419.9077" x2="233.5235" y2="419.9077">
	<stop  offset="0" style="stop-color:#F39800"/>
	<stop  offset="1" style="stop-color:#F8B62D"/>
</linearGradient>
<polygon class="st22" points="176.9,403.3 172.8,436.5 233.5,414 "/>
<linearGradient id="SVGID_22_" gradientUnits="userSpaceOnUse" x1="241.6781" y1="319.3771" x2="296.9425" y2="319.3771">
	<stop  offset="0" style="stop-color:#F39800"/>
	<stop  offset="1" style="stop-color:#F8B62D"/>
</linearGradient>
<polygon class="st23" points="271.7,262.6 241.7,377.9 296.9,260.9 "/>
<linearGradient id="SVGID_23_" gradientUnits="userSpaceOnUse" x1="256.6084" y1="476.8187" x2="299.7051" y2="476.8187">
	<stop  offset="0" style="stop-color:#F8B62D"/>
	<stop  offset="1" style="stop-color:#FAEE00"/>
</linearGradient>
<polygon class="st24" points="279.6,465.2 256.6,480.5 299.2,488.5 299.7,487.5 "/>
<polygon class="st20" points="239.5,477.3 240.8,491 256.6,480.5 "/>
<polygon class="st20" points="299.2,488.5 300.9,488.8 299.7,487.5 "/>
<linearGradient id="SVGID_24_" gradientUnits="userSpaceOnUse" x1="233.5235" y1="447.217" x2="279.6011" y2="447.217">
	<stop  offset="0" style="stop-color:#F8B62D"/>
	<stop  offset="1" style="stop-color:#FAEE00"/>
</linearGradient>
<polygon class="st25" points="279.6,465.2 233.5,414 239.5,477.3 256.6,480.5 "/>
<linearGradient id="SVGID_25_" gradientUnits="userSpaceOnUse" x1="176.6386" y1="445.6094" x2="239.4984" y2="445.6094">
	<stop  offset="0" style="stop-color:#EA5514"/>
	<stop  offset="1" style="stop-color:#F39800"/>
</linearGradient>
<polygon class="st26" points="176.6,465.4 239.5,477.3 233.5,414 "/>
<linearGradient id="SVGID_26_" gradientUnits="userSpaceOnUse" x1="279.6011" y1="459.2216" x2="331.0258" y2="459.2216">
	<stop  offset="0" style="stop-color:#F39800"/>
	<stop  offset="1" style="stop-color:#F8B62D"/>
</linearGradient>
<polygon class="st27" points="299.7,487.5 331,430.9 279.6,465.2 "/>
<linearGradient id="SVGID_27_" gradientUnits="userSpaceOnUse" x1="299.7051" y1="464.2709" x2="347.7899" y2="464.2709">
	<stop  offset="0" style="stop-color:#F8B62D"/>
	<stop  offset="1" style="stop-color:#FAEE00"/>
</linearGradient>
<polygon class="st28" points="300.9,488.8 347.8,497.6 331,430.9 299.7,487.5 "/>
<polygon class="st20" points="142.8,459.1 148.8,490.7 168.2,473.1 169.3,464.1 "/>
<linearGradient id="SVGID_28_" gradientUnits="userSpaceOnUse" x1="132.6631" y1="453.7549" x2="142.8207" y2="453.7549">
	<stop  offset="0" style="stop-color:#F39800"/>
	<stop  offset="1" style="stop-color:#F8B62D"/>
</linearGradient>
<polygon class="st29" points="140.8,448.4 132.7,451.4 132.9,457.2 142.8,459.1 "/>
<linearGradient id="SVGID_29_" gradientUnits="userSpaceOnUse" x1="169.3017" y1="439.7033" x2="233.5235" y2="439.7033">
	<stop  offset="0" style="stop-color:#F8B62D"/>
	<stop  offset="1" style="stop-color:#FAEE00"/>
</linearGradient>
<polygon class="st30" points="172.8,436.5 169.3,464.1 176.6,465.4 233.5,414 "/>
<linearGradient id="SVGID_30_" gradientUnits="userSpaceOnUse" x1="132.8692" y1="480.3896" x2="148.7804" y2="480.3896">
	<stop  offset="0" style="stop-color:#F39800"/>
	<stop  offset="1" style="stop-color:#F8B62D"/>
</linearGradient>
<polygon class="st31" points="132.9,457.2 134.5,503.6 148.8,490.7 142.8,459.1 "/>
<linearGradient id="SVGID_31_" gradientUnits="userSpaceOnUse" x1="140.8063" y1="450.3069" x2="172.7508" y2="450.3069">
	<stop  offset="0" style="stop-color:#F8B62D"/>
	<stop  offset="1" style="stop-color:#FAEE00"/>
</linearGradient>
<polygon class="st32" points="169.3,464.1 172.8,436.5 140.8,448.4 142.8,459.1 "/>
<polygon class="st20" points="168.2,473.1 176.6,465.4 169.3,464.1 "/>
<linearGradient id="SVGID_32_" gradientUnits="userSpaceOnUse" x1="76.2542" y1="115.6329" x2="135.7898" y2="115.6329">
	<stop  offset="0" style="stop-color:#F8B62D"/>
	<stop  offset="1" style="stop-color:#FAEE00"/>
</linearGradient>
<polygon class="st33" points="88.3,117.9 76.3,124.6 135.8,114 131.3,106.7 "/>
<linearGradient id="SVGID_33_" gradientUnits="userSpaceOnUse" x1="11.9103" y1="137.0024" x2="135.7898" y2="137.0024">
	<stop  offset="0" style="stop-color:#F39800"/>
	<stop  offset="1" style="stop-color:#F8B62D"/>
</linearGradient>
<polygon class="st34" points="11.9,160 135.8,114 76.3,124.6 "/>
<linearGradient id="SVGID_34_" gradientUnits="userSpaceOnUse" x1="131.2891" y1="133.0182" x2="169.1847" y2="133.0182">
	<stop  offset="0" style="stop-color:#F39800"/>
	<stop  offset="1" style="stop-color:#F8B62D"/>
</linearGradient>
<polygon class="st35" points="147.3,102.5 131.3,106.7 135.8,114 169.2,163.5 "/>
<linearGradient id="SVGID_35_" gradientUnits="userSpaceOnUse" x1="169.1847" y1="208.1601" x2="209.7954" y2="208.1601">
	<stop  offset="0" style="stop-color:#F39800"/>
	<stop  offset="1" style="stop-color:#F8B62D"/>
</linearGradient>
<polygon class="st36" points="209.8,223.7 169.2,163.5 193.1,230.1 203.4,252.8 "/>
<linearGradient id="SVGID_36_" gradientUnits="userSpaceOnUse" x1="135.7898" y1="172.047" x2="193.0848" y2="172.047">
	<stop  offset="0" style="stop-color:#EA5514"/>
	<stop  offset="1" style="stop-color:#F39800"/>
</linearGradient>
<polygon class="st37" points="135.8,114 172.4,188.8 193.1,230.1 169.2,163.5 "/>
<linearGradient id="SVGID_37_" gradientUnits="userSpaceOnUse" x1="185.9144" y1="280.8036" x2="203.3518" y2="280.8036">
	<stop  offset="0" style="stop-color:#F8B62D"/>
	<stop  offset="1" style="stop-color:#FAEE00"/>
</linearGradient>
<polygon class="st38" points="193.1,230.1 185.9,331.5 203.4,252.8 "/>
<linearGradient id="SVGID_38_" gradientUnits="userSpaceOnUse" x1="34.8983" y1="124.9169" x2="88.2876" y2="124.9169">
	<stop  offset="0" style="stop-color:#F8B62D"/>
	<stop  offset="1" style="stop-color:#FAEE00"/>
</linearGradient>
<polygon class="st39" points="88.3,117.9 34.9,131.9 76.3,124.6 "/>
<linearGradient id="SVGID_39_" gradientUnits="userSpaceOnUse" x1="203.3518" y1="255.0651" x2="218.5376" y2="255.0651">
	<stop  offset="0" style="stop-color:#F39800"/>
	<stop  offset="1" style="stop-color:#F8B62D"/>
</linearGradient>
<polygon class="st40" points="218.5,286.4 209.8,223.7 203.4,252.8 "/>
<linearGradient id="SVGID_40_" gradientUnits="userSpaceOnUse" x1="147.2838" y1="163.117" x2="209.7954" y2="163.117">
	<stop  offset="0" style="stop-color:#F8B62D"/>
	<stop  offset="1" style="stop-color:#FAEE00"/>
</linearGradient>
<polygon class="st41" points="209.8,223.7 147.3,102.5 169.2,163.5 "/>
<linearGradient id="SVGID_41_" gradientUnits="userSpaceOnUse" x1="88.2876" y1="107.676" x2="131.2891" y2="107.676">
	<stop  offset="0" style="stop-color:#F8B62D"/>
	<stop  offset="1" style="stop-color:#FAEE00"/>
</linearGradient>
<polygon class="st42" points="131.3,106.7 125.6,97.4 88.3,117.9 "/>
<linearGradient id="SVGID_42_" gradientUnits="userSpaceOnUse" x1="125.5729" y1="102.0564" x2="147.2838" y2="102.0564">
	<stop  offset="0" style="stop-color:#F39800"/>
	<stop  offset="1" style="stop-color:#F8B62D"/>
</linearGradient>
<polygon class="st43" points="147.3,102.5 125.6,97.4 131.3,106.7 "/>
<linearGradient id="SVGID_43_" gradientUnits="userSpaceOnUse" x1="233.5235" y1="439.5644" x2="331.0258" y2="439.5644">
	<stop  offset="0" style="stop-color:#F39800"/>
	<stop  offset="1" style="stop-color:#F8B62D"/>
</linearGradient>
<polygon class="st44" points="279.6,465.2 331,430.9 233.5,414 "/>
<g>
	<linearGradient id="SVGID_44_" gradientUnits="userSpaceOnUse" x1="241.7898" y1="227.5604" x2="279.4994" y2="227.5604">
		<stop  offset="0" style="stop-color:#EA5514"/>
		<stop  offset="1" style="stop-color:#F39800"/>
	</linearGradient>
	<polygon class="st45" points="270.9,190.4 241.8,264.7 279.5,232.6 	"/>
	<g>
		<linearGradient id="SVGID_45_" gradientUnits="userSpaceOnUse" x1="149.838" y1="36.5206" x2="210.9015" y2="36.5206">
			<stop  offset="0" style="stop-color:#F39800"/>
			<stop  offset="1" style="stop-color:#F8B62D"/>
		</linearGradient>
		<polygon class="st46" points="149.8,10.6 162.6,41.2 210.9,62.5 		"/>
		<linearGradient id="SVGID_46_" gradientUnits="userSpaceOnUse" x1="162.6091" y1="69.3156" x2="252.0067" y2="69.3156">
			<stop  offset="0" style="stop-color:#F8B62D"/>
			<stop  offset="1" style="stop-color:#FAEE00"/>
		</linearGradient>
		<polygon class="st47" points="162.6,41.2 252,97.4 210.9,62.5 		"/>
		<linearGradient id="SVGID_47_" gradientUnits="userSpaceOnUse" x1="149.838" y1="49.6042" x2="270.3593" y2="49.6042">
			<stop  offset="0" style="stop-color:#EA5514"/>
			<stop  offset="1" style="stop-color:#F39800"/>
		</linearGradient>
		<polygon class="st48" points="270.4,88.6 149.8,10.6 210.9,62.5 		"/>
		<linearGradient id="SVGID_48_" gradientUnits="userSpaceOnUse" x1="210.9015" y1="79.9423" x2="270.3593" y2="79.9423">
			<stop  offset="0" style="stop-color:#F8B62D"/>
			<stop  offset="1" style="stop-color:#FAEE00"/>
		</linearGradient>
		<polygon class="st49" points="210.9,62.5 252,97.4 270.4,88.6 		"/>
		<linearGradient id="SVGID_49_" gradientUnits="userSpaceOnUse" x1="241.7898" y1="206.464" x2="270.9171" y2="206.464">
			<stop  offset="0" style="stop-color:#F8B62D"/>
			<stop  offset="1" style="stop-color:#FAEE00"/>
		</linearGradient>
		<polygon class="st50" points="262.3,148.2 254.6,206 241.8,264.7 270.9,190.4 		"/>
		<linearGradient id="SVGID_50_" gradientUnits="userSpaceOnUse" x1="252.0067" y1="151.6891" x2="262.3372" y2="151.6891">
			<stop  offset="0" style="stop-color:#F8B62D"/>
			<stop  offset="1" style="stop-color:#FAEE00"/>
		</linearGradient>
		<polygon class="st51" points="252,97.4 254.6,206 262.3,148.2 		"/>
		<linearGradient id="SVGID_51_" gradientUnits="userSpaceOnUse" x1="252.0067" y1="118.4273" x2="270.3593" y2="118.4273">
			<stop  offset="0" style="stop-color:#F8B62D"/>
			<stop  offset="1" style="stop-color:#FAEE00"/>
		</linearGradient>
		<polygon class="st52" points="270.4,88.6 252,97.4 262.3,148.2 		"/>
		<linearGradient id="SVGID_52_" gradientUnits="userSpaceOnUse" x1="262.3372" y1="139.5237" x2="275.9973" y2="139.5237">
			<stop  offset="0" style="stop-color:#F39800"/>
			<stop  offset="1" style="stop-color:#F8B62D"/>
		</linearGradient>
		<polygon class="st53" points="270.9,190.4 276,177.4 270.4,88.6 262.3,148.2 		"/>
	</g>
</g>
<polygon class="st20" points="203.4,252.8 185.9,331.5 218.5,286.4 "/>
<polygon class="st20" points="279.5,232.6 276,177.4 270.9,190.4 "/>
<linearGradient id="SVGID_53_" gradientUnits="userSpaceOnUse" x1="331.0258" y1="488.8309" x2="438.1991" y2="488.8309">
	<stop  offset="0" style="stop-color:#F8B62D"/>
	<stop  offset="1" style="stop-color:#FAEE00"/>
</linearGradient>
<polygon class="st54" points="438.2,512.6 424.2,465.1 398.1,482 "/>
<linearGradient id="SVGID_54_" gradientUnits="userSpaceOnUse" x1="331.0258" y1="451.815" x2="438.1991" y2="451.815">
	<stop  offset="0" style="stop-color:#F8B62D"/>
	<stop  offset="1" style="stop-color:#FAEE00"/>
</linearGradient>
<polygon class="st55" points="331,430.9 398.1,482 424.2,465.1 411.3,421.6 "/>
<linearGradient id="SVGID_55_" gradientUnits="userSpaceOnUse" x1="34.8983" y1="114.653" x2="125.5729" y2="114.653">
	<stop  offset="0" style="stop-color:#F39800"/>
	<stop  offset="1" style="stop-color:#F8B62D"/>
</linearGradient>
<polygon class="st56" points="125.6,97.4 34.9,131.9 88.3,117.9 "/>
<linearGradient id="SVGID_56_" gradientUnits="userSpaceOnUse" x1="122.4151" y1="454.3331" x2="132.8692" y2="454.3331">
	<stop  offset="0" style="stop-color:#F39800"/>
	<stop  offset="1" style="stop-color:#F8B62D"/>
</linearGradient>
<polygon class="st57" points="132.7,451.4 122.4,455.3 132.9,457.2 "/>
<linearGradient id="SVGID_57_" gradientUnits="userSpaceOnUse" x1="134.5238" y1="518.015" x2="159.1104" y2="518.015">
	<stop  offset="0" style="stop-color:#EA5514"/>
	<stop  offset="1" style="stop-color:#F39800"/>
</linearGradient>
<polygon class="st58" points="134.5,503.6 135.4,529 159.1,545.4 148.8,490.7 "/>
<linearGradient id="SVGID_58_" gradientUnits="userSpaceOnUse" x1="122.4151" y1="424.888" x2="132.6631" y2="424.888">
	<stop  offset="0" style="stop-color:#F8B62D"/>
	<stop  offset="1" style="stop-color:#FAEE00"/>
</linearGradient>
<polygon class="st59" points="130.6,394.5 122.4,455.3 132.7,451.4 "/>
<linearGradient id="SVGID_59_" gradientUnits="userSpaceOnUse" x1="93.3717" y1="570.8165" x2="136.8027" y2="570.8165">
	<stop  offset="0" style="stop-color:#F39800"/>
	<stop  offset="1" style="stop-color:#F8B62D"/>
</linearGradient>
<polygon class="st60" points="93.4,582.7 136.8,567.4 96.3,558.9 "/>
<linearGradient id="SVGID_60_" gradientUnits="userSpaceOnUse" x1="77.6504" y1="568.8716" x2="96.2832" y2="568.8716">
	<stop  offset="0" style="stop-color:#EA5514"/>
	<stop  offset="1" style="stop-color:#F39800"/>
</linearGradient>
<polygon class="st61" points="77.7,555 93.4,582.7 96.3,558.9 "/>
<linearGradient id="SVGID_61_" gradientUnits="userSpaceOnUse" x1="96.2832" y1="557.74" x2="136.8027" y2="557.74">
	<stop  offset="0" style="stop-color:#F8B62D"/>
	<stop  offset="1" style="stop-color:#FAEE00"/>
</linearGradient>
<polygon class="st62" points="97,552.7 96.3,558.9 136.8,567.4 136.1,548.1 "/>
<linearGradient id="SVGID_62_" gradientUnits="userSpaceOnUse" x1="136.1142" y1="556.3766" x2="159.1104" y2="556.3766">
	<stop  offset="0" style="stop-color:#F8B62D"/>
	<stop  offset="1" style="stop-color:#FAEE00"/>
</linearGradient>
<polygon class="st63" points="136.8,567.4 159.1,545.4 136.1,548.1 "/>
<linearGradient id="SVGID_63_" gradientUnits="userSpaceOnUse" x1="77.6504" y1="555.8272" x2="97.0405" y2="555.8272">
	<stop  offset="0" style="stop-color:#F8B62D"/>
	<stop  offset="1" style="stop-color:#FAEE00"/>
</linearGradient>
<polygon class="st64" points="77.7,555 96.3,558.9 97,552.7 "/>
<linearGradient id="SVGID_64_" gradientUnits="userSpaceOnUse" x1="135.4341" y1="538.5748" x2="159.1104" y2="538.5748">
	<stop  offset="0" style="stop-color:#F8B62D"/>
	<stop  offset="1" style="stop-color:#FAEE00"/>
</linearGradient>
<polygon class="st65" points="136.1,548.1 159.1,545.4 135.4,529 "/>
<linearGradient id="SVGID_65_" gradientUnits="userSpaceOnUse" x1="77.6504" y1="545.3079" x2="99.1393" y2="545.3079">
	<stop  offset="0" style="stop-color:#F8B62D"/>
	<stop  offset="1" style="stop-color:#FAEE00"/>
</linearGradient>
<polygon class="st66" points="99.1,535.6 77.7,555 97,552.7 "/>
<linearGradient id="SVGID_66_" gradientUnits="userSpaceOnUse" x1="97.0405" y1="535.2025" x2="136.1142" y2="535.2025">
	<stop  offset="0" style="stop-color:#F39800"/>
	<stop  offset="1" style="stop-color:#F8B62D"/>
</linearGradient>
<polygon class="st67" points="99.1,535.6 97,552.7 136.1,548.1 135.4,529 118.9,517.7 "/>
<linearGradient id="SVGID_67_" gradientUnits="userSpaceOnUse" x1="77.6504" y1="530.7574" x2="102.7007" y2="530.7574">
	<stop  offset="0" style="stop-color:#F8B62D"/>
	<stop  offset="1" style="stop-color:#FAEE00"/>
</linearGradient>
<polygon class="st68" points="102.7,506.5 77.7,555 99.1,535.6 "/>
<polygon class="st20" points="118.9,517.7 102.7,506.5 99.1,535.6 "/>
<linearGradient id="SVGID_68_" gradientUnits="userSpaceOnUse" x1="102.7007" y1="486.4637" x2="134.5238" y2="486.4637">
	<stop  offset="0" style="stop-color:#F8B62D"/>
	<stop  offset="1" style="stop-color:#FAEE00"/>
</linearGradient>
<polygon class="st69" points="134.5,503.6 132.9,457.2 122.4,455.3 102.7,506.5 118.9,517.7 "/>
<linearGradient id="SVGID_69_" gradientUnits="userSpaceOnUse" x1="441.7431" y1="430.593" x2="485.1457" y2="430.593">
	<stop  offset="0" style="stop-color:#F8B62D"/>
	<stop  offset="1" style="stop-color:#FAEE00"/>
</linearGradient>
<polygon class="st70" points="450.2,448.2 477.9,430.2 485.1,413 454.1,416.6 "/>
<linearGradient id="SVGID_70_" gradientUnits="userSpaceOnUse" x1="441.7431" y1="472.7225" x2="485.1457" y2="472.7225">
	<stop  offset="0" style="stop-color:#EA5514"/>
	<stop  offset="1" style="stop-color:#F39800"/>
</linearGradient>
<polygon class="st71" points="450.2,448.2 441.7,515.3 477.9,430.2 "/>
<linearGradient id="SVGID_71_" gradientUnits="userSpaceOnUse" x1="441.7431" y1="462.7789" x2="508.4413" y2="462.7789">
	<stop  offset="0" style="stop-color:#F39800"/>
	<stop  offset="1" style="stop-color:#F8B62D"/>
</linearGradient>
<polygon class="st72" points="441.7,515.3 508.4,410.3 477.9,430.2 "/>
<linearGradient id="SVGID_72_" gradientUnits="userSpaceOnUse" x1="441.7431" y1="420.2396" x2="508.4413" y2="420.2396">
	<stop  offset="0" style="stop-color:#F8B62D"/>
	<stop  offset="1" style="stop-color:#FAEE00"/>
</linearGradient>
<polygon class="st73" points="477.9,430.2 508.4,410.3 485.1,413 "/>
<linearGradient id="SVGID_73_" gradientUnits="userSpaceOnUse" x1="411.2813" y1="481.7209" x2="454.1437" y2="481.7209">
	<stop  offset="0" style="stop-color:#F8B62D"/>
	<stop  offset="1" style="stop-color:#FAEE00"/>
</linearGradient>
<polygon class="st74" points="424.2,465.1 438.2,512.6 441.7,515.3 450.2,448.2 "/>
<linearGradient id="SVGID_74_" gradientUnits="userSpaceOnUse" x1="411.2813" y1="440.856" x2="454.1437" y2="440.856">
	<stop  offset="0" style="stop-color:#EA5514"/>
	<stop  offset="1" style="stop-color:#F39800"/>
</linearGradient>
<polygon class="st75" points="411.3,421.6 424.2,465.1 450.2,448.2 454.1,416.6 "/>
<linearGradient id="SVGID_75_" gradientUnits="userSpaceOnUse" x1="331.0258" y1="466.1929" x2="441.7431" y2="466.1929">
	<stop  offset="0" style="stop-color:#F39800"/>
	<stop  offset="1" style="stop-color:#F8B62D"/>
</linearGradient>
<polygon class="st76" points="347.8,497.6 368.2,501.5 398.1,482 331,430.9 "/>
<linearGradient id="SVGID_76_" gradientUnits="userSpaceOnUse" x1="331.0258" y1="498.6465" x2="441.7431" y2="498.6465">
	<stop  offset="0" style="stop-color:#EA5514"/>
	<stop  offset="1" style="stop-color:#F39800"/>
</linearGradient>
<polygon class="st77" points="398.1,482 368.2,501.5 441.7,515.3 438.2,512.6 "/>
<linearGradient id="SVGID_77_" gradientUnits="userSpaceOnUse" x1="485.1457" y1="398.7922" x2="508.4413" y2="398.7922">
	<stop  offset="0" style="stop-color:#F8B62D"/>
	<stop  offset="1" style="stop-color:#FAEE00"/>
</linearGradient>
<polygon class="st78" points="485.1,413 508.4,410.3 497.2,384.6 "/>
<linearGradient id="SVGID_78_" gradientUnits="userSpaceOnUse" x1="159.1104" y1="518.1856" x2="249.095" y2="518.1856">
	<stop  offset="0" style="stop-color:#F8B62D"/>
	<stop  offset="1" style="stop-color:#FAEE00"/>
</linearGradient>
<polygon class="st79" points="240.8,491 159.1,545.4 245.1,536.2 "/>
<linearGradient id="SVGID_79_" gradientUnits="userSpaceOnUse" x1="159.1104" y1="505.4088" x2="240.7955" y2="505.4088">
	<stop  offset="0" style="stop-color:#F8B62D"/>
	<stop  offset="1" style="stop-color:#FAEE00"/>
</linearGradient>
<polygon class="st80" points="239.5,477.3 176.6,465.4 168.2,473.1 159.1,545.4 240.8,491 "/>
<linearGradient id="SVGID_80_" gradientUnits="userSpaceOnUse" x1="148.7804" y1="509.2419" x2="168.168" y2="509.2419">
	<stop  offset="0" style="stop-color:#F8B62D"/>
	<stop  offset="1" style="stop-color:#FAEE00"/>
</linearGradient>
<polygon class="st81" points="148.8,490.7 159.1,545.4 168.2,473.1 "/>
<linearGradient id="SVGID_81_" gradientUnits="userSpaceOnUse" x1="249.095" y1="510.7765" x2="362.9122" y2="510.7765">
	<stop  offset="0" style="stop-color:#F39800"/>
	<stop  offset="1" style="stop-color:#F8B62D"/>
</linearGradient>
<polygon class="st82" points="300.9,488.8 299.2,488.5 274.5,533.1 328.4,527.3 332.9,524.4 "/>
<linearGradient id="SVGID_82_" gradientUnits="userSpaceOnUse" x1="240.7955" y1="508.3439" x2="299.1721" y2="508.3439">
	<stop  offset="0" style="stop-color:#F39800"/>
	<stop  offset="1" style="stop-color:#F8B62D"/>
</linearGradient>
<polygon class="st83" points="256.6,480.5 240.8,491 245.1,536.2 274.5,533.1 299.2,488.5 "/>
<linearGradient id="SVGID_83_" gradientUnits="userSpaceOnUse" x1="300.8561" y1="506.6029" x2="362.9122" y2="506.6029">
	<stop  offset="0" style="stop-color:#EA5514"/>
	<stop  offset="1" style="stop-color:#F39800"/>
</linearGradient>
<polygon class="st84" points="300.9,488.8 332.9,524.4 351.5,512.3 347.8,497.6 "/>
<linearGradient id="SVGID_84_" gradientUnits="userSpaceOnUse" x1="300.8561" y1="519.492" x2="362.9122" y2="519.492">
	<stop  offset="0" style="stop-color:#EA5514"/>
	<stop  offset="1" style="stop-color:#F39800"/>
</linearGradient>
<polygon class="st85" points="334.9,526.6 354.6,524.5 351.5,512.3 332.9,524.4 "/>
<linearGradient id="SVGID_85_" gradientUnits="userSpaceOnUse" x1="347.7899" y1="504.9741" x2="441.7431" y2="504.9741">
	<stop  offset="0" style="stop-color:#F8B62D"/>
	<stop  offset="1" style="stop-color:#FAEE00"/>
</linearGradient>
<polygon class="st86" points="351.5,512.3 368.2,501.5 347.8,497.6 "/>
<linearGradient id="SVGID_86_" gradientUnits="userSpaceOnUse" x1="347.7899" y1="513" x2="441.7431" y2="513">
	<stop  offset="0" style="stop-color:#F8B62D"/>
	<stop  offset="1" style="stop-color:#FAEE00"/>
</linearGradient>
<polygon class="st87" points="351.5,512.3 354.6,524.5 441.7,515.3 368.2,501.5 "/>
<g>
	<linearGradient id="SVGID_87_" gradientUnits="userSpaceOnUse" x1="334.921" y1="533.0161" x2="362.9122" y2="533.0161">
		<stop  offset="0" style="stop-color:#F8B62D"/>
		<stop  offset="1" style="stop-color:#FAEE00"/>
	</linearGradient>
	<polygon class="st88" points="334.9,523.1 362.9,544.4 354.6,521.6 	"/>
	<g>
		<linearGradient id="SVGID_88_" gradientUnits="userSpaceOnUse" x1="159.1104" y1="544.2771" x2="249.095" y2="544.2771">
			<stop  offset="0" style="stop-color:#F39800"/>
			<stop  offset="1" style="stop-color:#F8B62D"/>
		</linearGradient>
		<polygon class="st89" points="159.1,535.9 249.1,558.9 245.1,529.6 		"/>
		<linearGradient id="SVGID_89_" gradientUnits="userSpaceOnUse" x1="249.095" y1="540.9943" x2="362.9122" y2="540.9943">
			<stop  offset="0" style="stop-color:#F8B62D"/>
			<stop  offset="1" style="stop-color:#FAEE00"/>
		</linearGradient>
		<polygon class="st90" points="328.4,523.5 249.1,558.9 362.9,544.4 334.9,523.1 		"/>
		<linearGradient id="SVGID_90_" gradientUnits="userSpaceOnUse" x1="249.095" y1="541.2312" x2="362.9122" y2="541.2312">
			<stop  offset="0" style="stop-color:#F8B62D"/>
			<stop  offset="1" style="stop-color:#FAEE00"/>
		</linearGradient>
		<polygon class="st91" points="274.5,527.5 249.1,558.9 328.4,523.5 		"/>
		<linearGradient id="SVGID_91_" gradientUnits="userSpaceOnUse" x1="240.7955" y1="543.2027" x2="299.1721" y2="543.2027">
			<stop  offset="0" style="stop-color:#F8B62D"/>
			<stop  offset="1" style="stop-color:#FAEE00"/>
		</linearGradient>
		<polygon class="st92" points="245.1,529.6 249.1,558.9 274.5,527.5 		"/>
		<linearGradient id="SVGID_92_" gradientUnits="userSpaceOnUse" x1="347.7899" y1="529.8311" x2="441.7431" y2="529.8311">
			<stop  offset="0" style="stop-color:#F8B62D"/>
			<stop  offset="1" style="stop-color:#FAEE00"/>
		</linearGradient>
		<polygon class="st93" points="362.9,544.4 441.7,515.3 354.6,521.6 		"/>
	</g>
</g>
<linearGradient id="SVGID_93_" gradientUnits="userSpaceOnUse" x1="416.0063" y1="199.0839" x2="492.7051" y2="199.0839">
	<stop  offset="0" style="stop-color:#F8B62D"/>
	<stop  offset="1" style="stop-color:#FAEE00"/>
</linearGradient>
<polygon class="st94" points="446.5,234.4 492.7,182 416,163.8 422.1,222.7 "/>
<linearGradient id="SVGID_94_" gradientUnits="userSpaceOnUse" x1="387.0139" y1="193.2228" x2="422.1188" y2="193.2228">
	<stop  offset="0" style="stop-color:#EA5514"/>
	<stop  offset="1" style="stop-color:#F39800"/>
</linearGradient>
<polygon class="st95" points="422.1,222.7 416,163.8 387,205.8 "/>
<linearGradient id="SVGID_95_" gradientUnits="userSpaceOnUse" x1="446.4914" y1="216.1238" x2="492.7051" y2="216.1238">
	<stop  offset="0" style="stop-color:#F39800"/>
	<stop  offset="1" style="stop-color:#F8B62D"/>
</linearGradient>
<polygon class="st96" points="479.5,250.2 492.7,182 446.5,234.4 "/>
<linearGradient id="SVGID_96_" gradientUnits="userSpaceOnUse" x1="334.8407" y1="199.2721" x2="387.0139" y2="199.2721">
	<stop  offset="0" style="stop-color:#F8B62D"/>
	<stop  offset="1" style="stop-color:#FAEE00"/>
</linearGradient>
<polygon class="st97" points="387,205.8 334.8,180.7 378.7,217.9 "/>
<linearGradient id="SVGID_97_" gradientUnits="userSpaceOnUse" x1="479.4788" y1="231.0527" x2="541.5576" y2="231.0527">
	<stop  offset="0" style="stop-color:#F8B62D"/>
	<stop  offset="1" style="stop-color:#FAEE00"/>
</linearGradient>
<polygon class="st98" points="541.6,280.1 492.7,182 479.5,250.2 "/>
<polygon class="st20" points="416,163.8 334.8,180.7 387,205.8 "/>
<linearGradient id="SVGID_98_" gradientUnits="userSpaceOnUse" x1="476.1282" y1="265.1717" x2="541.5576" y2="265.1717">
	<stop  offset="0" style="stop-color:#F39800"/>
	<stop  offset="1" style="stop-color:#F8B62D"/>
</linearGradient>
<polygon class="st99" points="476.1,267.5 541.6,280.1 479.5,250.2 "/>
<linearGradient id="SVGID_99_" gradientUnits="userSpaceOnUse" x1="397.3255" y1="368.3753" x2="466.8977" y2="368.3753">
	<stop  offset="0" style="stop-color:#F8B62D"/>
	<stop  offset="1" style="stop-color:#FAEE00"/>
</linearGradient>
<polygon class="st100" points="411.3,421.6 454.1,416.6 466.9,315.2 397.3,374.4 "/>
<linearGradient id="SVGID_100_" gradientUnits="userSpaceOnUse" x1="331.0258" y1="402.6866" x2="411.2813" y2="402.6866">
	<stop  offset="0" style="stop-color:#EA5514"/>
	<stop  offset="1" style="stop-color:#F39800"/>
</linearGradient>
<polygon class="st101" points="331,430.9 411.3,421.6 397.3,374.4 "/>
<linearGradient id="SVGID_101_" gradientUnits="userSpaceOnUse" x1="466.8977" y1="326.054" x2="541.5576" y2="326.054">
	<stop  offset="0" style="stop-color:#F8B62D"/>
	<stop  offset="1" style="stop-color:#FAEE00"/>
</linearGradient>
<polygon class="st102" points="466.9,315.2 497.2,384.6 541.6,280.1 476.1,267.5 "/>
<linearGradient id="SVGID_102_" gradientUnits="userSpaceOnUse" x1="334.8407" y1="218.8918" x2="378.6593" y2="218.8918">
	<stop  offset="0" style="stop-color:#F8B62D"/>
	<stop  offset="1" style="stop-color:#FAEE00"/>
</linearGradient>
<polygon class="st103" points="378.7,217.9 334.8,180.7 351.6,257.1 "/>
<linearGradient id="SVGID_103_" gradientUnits="userSpaceOnUse" x1="454.1437" y1="365.8822" x2="497.2119" y2="365.8822">
	<stop  offset="0" style="stop-color:#F39800"/>
	<stop  offset="1" style="stop-color:#F8B62D"/>
</linearGradient>
<polygon class="st104" points="454.1,416.6 485.1,413 497.2,384.6 466.9,315.2 "/>
<polygon class="st20" points="140.8,448.4 130.6,394.5 132.7,451.4 "/>
<linearGradient id="SVGID_104_" gradientUnits="userSpaceOnUse" x1="218.5376" y1="321.288" x2="241.7898" y2="321.288">
	<stop  offset="0" style="stop-color:#F8B62D"/>
	<stop  offset="1" style="stop-color:#FAEE00"/>
</linearGradient>
<polygon class="st105" points="241.8,264.7 218.5,286.4 241.7,377.9 "/>
<linearGradient id="SVGID_105_" gradientUnits="userSpaceOnUse" x1="185.9144" y1="332.1396" x2="241.6781" y2="332.1396">
	<stop  offset="0" style="stop-color:#EA5514"/>
	<stop  offset="1" style="stop-color:#F39800"/>
</linearGradient>
<polygon class="st106" points="218.5,286.4 185.9,331.5 241.7,377.9 "/>
<linearGradient id="SVGID_106_" gradientUnits="userSpaceOnUse" x1="130.6305" y1="363.0243" x2="185.9144" y2="363.0243">
	<stop  offset="0" style="stop-color:#F8B62D"/>
	<stop  offset="1" style="stop-color:#FAEE00"/>
</linearGradient>
<polygon class="st107" points="185.9,331.5 130.6,394.5 178.9,387.3 "/>
<linearGradient id="SVGID_107_" gradientUnits="userSpaceOnUse" x1="178.9267" y1="359.4018" x2="241.6781" y2="359.4018">
	<stop  offset="0" style="stop-color:#F39800"/>
	<stop  offset="1" style="stop-color:#F8B62D"/>
</linearGradient>
<polygon class="st108" points="241.7,377.9 185.9,331.5 178.9,387.3 "/>
<linearGradient id="SVGID_108_" gradientUnits="userSpaceOnUse" x1="306.0407" y1="218.8918" x2="351.5593" y2="218.8918">
	<stop  offset="0" style="stop-color:#F8B62D"/>
	<stop  offset="1" style="stop-color:#FAEE00"/>
</linearGradient>
<polygon class="st109" points="351.6,257.1 334.8,180.7 306,241.6 "/>
<linearGradient id="SVGID_109_" gradientUnits="userSpaceOnUse" x1="130.6305" y1="421.4705" x2="176.9223" y2="421.4705">
	<stop  offset="0" style="stop-color:#F39800"/>
	<stop  offset="1" style="stop-color:#F8B62D"/>
</linearGradient>
<polygon class="st110" points="172.8,436.5 176.9,403.3 130.6,394.5 140.8,448.4 "/>
<linearGradient id="SVGID_110_" gradientUnits="userSpaceOnUse" x1="130.6305" y1="395.2718" x2="178.9267" y2="395.2718">
	<stop  offset="0" style="stop-color:#EA5514"/>
	<stop  offset="1" style="stop-color:#F39800"/>
</linearGradient>
<polygon class="st111" points="178.9,387.3 130.6,394.5 176.9,403.3 "/>
<linearGradient id="SVGID_111_" gradientUnits="userSpaceOnUse" x1="279.4994" y1="211.1556" x2="334.8407" y2="211.1556">
	<stop  offset="0" style="stop-color:#F39800"/>
	<stop  offset="1" style="stop-color:#F8B62D"/>
</linearGradient>
<polygon class="st112" points="334.8,180.7 279.5,232.6 306,241.6 "/>
<polygon class="st20" points="279.5,232.6 241.8,264.7 271.7,262.6 "/>
<linearGradient id="SVGID_112_" gradientUnits="userSpaceOnUse" x1="271.6802" y1="247.6273" x2="306.0407" y2="247.6273">
	<stop  offset="0" style="stop-color:#F39800"/>
	<stop  offset="1" style="stop-color:#F8B62D"/>
</linearGradient>
<polygon class="st113" points="296.9,260.9 306,241.6 279.5,232.6 271.7,262.6 "/>
<linearGradient id="SVGID_113_" gradientUnits="userSpaceOnUse" x1="241.6781" y1="320.2523" x2="271.6802" y2="320.2523">
	<stop  offset="0" style="stop-color:#F8B62D"/>
	<stop  offset="1" style="stop-color:#FAEE00"/>
</linearGradient>
<polygon class="st114" points="271.7,262.6 241.8,264.7 241.7,377.9 "/>
<linearGradient id="SVGID_114_" gradientUnits="userSpaceOnUse" x1="241.6781" y1="365.7002" x2="278.9936" y2="365.7002">
	<stop  offset="0" style="stop-color:#000000"/>
	<stop  offset="1" style="stop-color:#595757"/>
</linearGradient>
<polygon class="st115" points="279,353.5 241.7,377.9 265.7,371.2 "/>
<linearGradient id="SVGID_115_" gradientUnits="userSpaceOnUse" x1="233.5235" y1="395.9124" x2="265.7279" y2="395.9124">
	<stop  offset="0" style="stop-color:#000000"/>
	<stop  offset="1" style="stop-color:#727171"/>
</linearGradient>
<polygon class="st116" points="254.8,385.7 241.7,377.9 233.5,414 "/>
<linearGradient id="SVGID_116_" gradientUnits="userSpaceOnUse" x1="233.5235" y1="399.8144" x2="340.547" y2="399.8144">
	<stop  offset="0" style="stop-color:#727171"/>
	<stop  offset="1" style="stop-color:#B5B5B6"/>
</linearGradient>
<polygon class="st117" points="254.8,385.7 233.5,414 254.8,385.7 "/>
<linearGradient id="SVGID_117_" gradientUnits="userSpaceOnUse" x1="233.5235" y1="399.8144" x2="265.7279" y2="399.8144">
	<stop  offset="0" style="stop-color:#000000"/>
	<stop  offset="1" style="stop-color:#727171"/>
</linearGradient>
<polygon class="st118" points="254.8,385.7 233.5,414 254.8,385.7 "/>
<linearGradient id="SVGID_118_" gradientUnits="userSpaceOnUse" x1="233.5235" y1="378.4165" x2="265.7279" y2="378.4165">
	<stop  offset="0" style="stop-color:#000000"/>
	<stop  offset="1" style="stop-color:#595757"/>
</linearGradient>
<polygon class="st119" points="265.7,371.2 241.7,377.9 254.8,385.7 "/>
<linearGradient id="SVGID_119_" gradientUnits="userSpaceOnUse" x1="233.5235" y1="378.4165" x2="340.547" y2="378.4165">
	<stop  offset="0" style="stop-color:#727171"/>
	<stop  offset="1" style="stop-color:#B5B5B6"/>
</linearGradient>
<polygon class="st120" points="265.7,371.2 254.8,385.7 254.8,385.7 "/>
<linearGradient id="SVGID_120_" gradientUnits="userSpaceOnUse" x1="233.5235" y1="378.4165" x2="265.7279" y2="378.4165">
	<stop  offset="0" style="stop-color:#000000"/>
	<stop  offset="1" style="stop-color:#727171"/>
</linearGradient>
<polygon class="st121" points="265.7,371.2 254.8,385.7 254.8,385.7 "/>
<linearGradient id="SVGID_121_" gradientUnits="userSpaceOnUse" x1="241.6781" y1="317.4847" x2="351.5593" y2="317.4847">
	<stop  offset="0" style="stop-color:#000000"/>
	<stop  offset="1" style="stop-color:#595757"/>
</linearGradient>
<polygon class="st122" points="351.6,257.1 241.7,377.9 279,353.5 "/>
<linearGradient id="SVGID_122_" gradientUnits="userSpaceOnUse" x1="233.5235" y1="413.9293" x2="331.0258" y2="413.9293">
	<stop  offset="0" style="stop-color:#000000"/>
	<stop  offset="1" style="stop-color:#595757"/>
</linearGradient>
<polygon class="st123" points="233.5,414 331,430.9 273.8,396.9 "/>
<linearGradient id="SVGID_123_" gradientUnits="userSpaceOnUse" x1="273.7664" y1="400.274" x2="338.2696" y2="400.274">
	<stop  offset="0" style="stop-color:#000000"/>
	<stop  offset="1" style="stop-color:#595757"/>
</linearGradient>
<polygon class="st124" points="273.8,396.9 331,430.9 338.3,369.6 "/>
<linearGradient id="SVGID_124_" gradientUnits="userSpaceOnUse" x1="331.0258" y1="393.0193" x2="372.5381" y2="393.0193">
	<stop  offset="0" style="stop-color:#3E3A39"/>
	<stop  offset="1" style="stop-color:#727171"/>
</linearGradient>
<polygon class="st125" points="338.3,369.6 331,430.9 372.5,355.1 "/>
<linearGradient id="SVGID_125_" gradientUnits="userSpaceOnUse" x1="265.7279" y1="340.7493" x2="345.272" y2="340.7493">
	<stop  offset="0" style="stop-color:#000000"/>
	<stop  offset="1" style="stop-color:#595757"/>
</linearGradient>
<polygon class="st126" points="345.3,310.3 279,353.5 265.7,371.2 340.5,350.3 "/>
<linearGradient id="SVGID_126_" gradientUnits="userSpaceOnUse" x1="340.547" y1="314.4217" x2="410.0656" y2="314.4217">
	<stop  offset="0" style="stop-color:#3E3A39"/>
	<stop  offset="1" style="stop-color:#727171"/>
</linearGradient>
<polygon class="st127" points="381.4,339 410.1,286.6 394.1,278.5 345.3,310.3 340.5,350.3 "/>
<linearGradient id="SVGID_127_" gradientUnits="userSpaceOnUse" x1="394.0888" y1="272.2028" x2="425.7741" y2="272.2028">
	<stop  offset="0" style="stop-color:#595757"/>
	<stop  offset="1" style="stop-color:#898989"/>
</linearGradient>
<polygon class="st128" points="425.8,257.9 394.1,278.5 410.1,286.6 "/>
<linearGradient id="SVGID_128_" gradientUnits="userSpaceOnUse" x1="338.2696" y1="354.2892" x2="381.3723" y2="354.2892">
	<stop  offset="0" style="stop-color:#3E3A39"/>
	<stop  offset="1" style="stop-color:#727171"/>
</linearGradient>
<polygon class="st129" points="338.3,369.6 372.5,355.1 381.4,339 340.5,350.3 "/>
<linearGradient id="SVGID_129_" gradientUnits="userSpaceOnUse" x1="345.272" y1="283.7196" x2="394.0888" y2="283.7196">
	<stop  offset="0" style="stop-color:#595757"/>
	<stop  offset="1" style="stop-color:#898989"/>
</linearGradient>
<polygon class="st130" points="394.1,278.5 351.6,257.1 345.3,310.3 "/>
<linearGradient id="SVGID_130_" gradientUnits="userSpaceOnUse" x1="410.0656" y1="286.5034" x2="466.8977" y2="286.5034">
	<stop  offset="0" style="stop-color:#898989"/>
	<stop  offset="1" style="stop-color:#B5B5B6"/>
</linearGradient>
<polygon class="st131" points="410.1,286.6 466.9,315.2 425.8,257.9 "/>
<linearGradient id="SVGID_131_" gradientUnits="userSpaceOnUse" x1="372.5381" y1="335.1275" x2="466.8977" y2="335.1275">
	<stop  offset="0" style="stop-color:#595757"/>
	<stop  offset="1" style="stop-color:#898989"/>
</linearGradient>
<polygon class="st132" points="372.5,355.1 466.9,315.2 381.4,339 "/>
</svg>
