<?xml version="1.0" encoding="utf-8"?>
<!-- Generator: Adobe Illustrator 22.0.1, SVG Export Plug-In . SVG Version: 6.00 Build 0)  -->
<svg version="1.1" id="圖層_1" xmlns="http://www.w3.org/2000/svg" xmlns:xlink="http://www.w3.org/1999/xlink" x="0px" y="0px"
	 viewBox="0 0 573 573" style="enable-background:new 0 0 573 573;" xml:space="preserve">
<style type="text/css">
	.st0{fill:#FEFEFE;stroke:#000000;stroke-miterlimit:10;}
	.st1{fill:#FEFEFE;}
</style>
<title>資產 1</title>
<g id="圖層_1-2">
	<g>
		<circle cx="286.5" cy="286.5" r="286.5"/>
		<path d="M156.1,389.8c0.7-2.2,0.2-4.7-1.3-6.5c-24.8-33.2-36-70.7-34.4-112c2.9-75.7,58.5-142.8,132.4-159.9
			c94.3-21.8,186,34.7,208.9,128.8C484.3,332.7,424,428.8,331,448.6c-35.5,7.6-70.1,4.7-103.8-9c-1.9-0.9-4-0.9-5.9,0
			c-27.5,10.8-55.1,21.5-82.6,32.2c-1,0.4-1.9,0.7-3.4,1.3C142.3,444.9,149.1,417.4,156.1,389.8z"/>
		<path class="st0" d="M252.8,111.5c-73.8,17.1-129.4,84.2-132.4,159.9c-1.6,41.4,9.7,78.8,34.4,112c1.5,1.8,2,4.2,1.3,6.5
			c-7,27.5-13.8,55.1-20.8,83.3c1.4-0.5,2.4-0.9,3.4-1.3c27.5-10.7,55.1-21.5,82.6-32.3c1.9-0.9,4-0.9,5.9,0
			c33.6,13.7,68.3,16.6,103.8,9c93-19.9,153.3-115.9,130.7-208.3C438.8,146.2,347.1,89.7,252.8,111.5z M320.8,426.1
			c-32.6,6.3-63.9,1.8-93.7-13c-2.1-1.2-4.7-1.3-6.9-0.3c-17.6,7-35.2,13.8-53.5,21c4.8-17,9.3-33.3,14.1-49.5
			c1.1-3.8,0.8-6.3-1.8-9.5c-69.4-83.9-27.7-211.3,77.8-238.3c82.3-21,166.6,32.4,182.3,115.7c15.6,80.4-37,158.2-117.4,173.8
			C321.3,426,321.1,426,320.8,426.1L320.8,426.1z"/>
		<path d="M256.8,136.5c-105.5,27-147.1,154.4-77.8,238.3c2.6,3.1,3,5.7,1.8,9.5c-4.8,16.2-9.3,32.5-14.1,49.5
			c18.3-7.1,35.9-14,53.5-21c2.2-1,4.8-0.9,6.9,0.3c29.8,14.8,61.1,19.3,93.7,13c80.5-15.2,133.5-92.7,118.3-173.2
			c0-0.2-0.1-0.5-0.1-0.7C423.3,168.9,339.1,115.4,256.8,136.5z M384.2,345.2c-4.3,11.1-21.1,22.6-33,22.6
			c-10.3,0-20.5-1.8-30.2-5.2c-24.2-8.2-44.4-22.7-62.4-40.4c-16.8-16.5-30-35.5-37.4-58.2c-3-9.6-4.7-19.5-5-29.5
			c-0.4-7.6,2.1-15,7-20.8c2.5-3,5.3-5.9,8.3-8.5c4.3-3.9,8.8-7.4,13.3-5.6c6,0.6,10.9-0.2,13.8,1.9c2.7,1.9,3,7,4.5,10.7
			c3.6,9.4,6.9,19,11.2,28.2c2.1,4.6,2.1,8.7-1.9,12.5c-3.7,3.5-6.7,7.8-10.5,11.2c-3,2.7-3,5-0.9,8.1c6.5,9.9,14,19.2,22.4,27.6
			c8.7,8.8,18.3,16.7,28.7,23.5c3.2,2.1,5.4,2,8.1-0.9c3.8-4.2,8.4-7.6,12.4-11.6c2.3-2.5,6-3.2,9.1-1.7
			c13.2,5.6,26.6,10.7,40.1,15.4c1.2,0.3,1.9,1.5,1.8,2.7c0.3,5.4,0.8,10.8,1.1,16.2C384.5,344,384.4,344.6,384.2,345.2z"/>
		<path class="st1" d="M383.3,327.1c0.1-1.2-0.6-2.3-1.8-2.7c-13.5-4.7-26.9-9.8-40.1-15.4c-3.1-1.5-6.8-0.8-9.1,1.7
			c-4.1,3.9-8.6,7.4-12.4,11.6c-2.8,3-5,3-8.1,0.9c-10.4-6.8-20-14.7-28.7-23.5c-8.4-8.4-15.9-17.6-22.4-27.6
			c-2-3.2-2.1-5.4,0.9-8.1c3.8-3.4,6.8-7.7,10.5-11.2c4-3.8,4-8,1.9-12.5c-4.3-9.2-7.6-18.8-11.2-28.2c-1.4-3.7-1.8-8.7-4.5-10.7
			c-2.8-2.1-7.8-1.2-13.8-1.9c-4.5-1.8-8.9,1.7-13.3,5.6c-3,2.6-5.8,5.4-8.3,8.5c-4.9,5.8-7.4,13.3-7,20.8c0.3,10,2,19.9,5,29.5
			c7.3,22.7,20.5,41.7,37.4,58.2c18,17.7,38.2,32.2,62.4,40.4c9.7,3.4,19.9,5.1,30.2,5.2c11.9,0,28.8-11.5,33-22.6
			c0.2-0.6,0.3-1.3,0.3-1.9C384.1,337.9,383.6,332.5,383.3,327.1z"/>
	</g>
</g>
</svg>
