<?xml version="1.0" encoding="utf-8"?>
<!-- Generator: Adobe Illustrator 22.0.1, SVG Export Plug-In . SVG Version: 6.00 Build 0)  -->
<svg version="1.1" id="圖層_1" xmlns="http://www.w3.org/2000/svg" xmlns:xlink="http://www.w3.org/1999/xlink" x="0px" y="0px"
	 viewBox="0 0 24 24" style="enable-background:new 0 0 24 24;" xml:space="preserve">
<title>GitLab icon</title>
<path d="M12,0C5.4,0,0,5.4,0,12s5.4,12,12,12s12-5.4,12-12S18.6,0,12,0z M20.4,15.1L12,21.2l-8.4-6.1c-0.2-0.2-0.3-0.5-0.2-0.7l1-3
	l1.9-5.9c0.1-0.3,0.5-0.3,0.6,0l1.9,5.9h6.4l1.9-5.9c0.1-0.3,0.5-0.3,0.6,0l1.9,5.9l1,3C20.7,14.6,20.6,14.9,20.4,15.1z"/>
</svg>
