<?xml version="1.0" encoding="utf-8"?>
<!-- Generator: Adobe Illustrator 22.0.1, SVG Export Plug-In . SVG Version: 6.00 Build 0)  -->
<svg version="1.1" id="圖層_1" xmlns="http://www.w3.org/2000/svg" xmlns:xlink="http://www.w3.org/1999/xlink" x="0px" y="0px"
	 viewBox="0 0 80 80" style="enable-background:new 0 0 80 80;" xml:space="preserve">
<style type="text/css">
	.st0{fill:#0A0A0A;}
	.st1{fill:#FEFEFE;}
	.st2{fill:#F5F6F6;}
	.st3{fill:#F9F9F9;}
	.st4{fill:#191971;}
	.st5{fill:#DAA421;}
	.st6{fill:#17196C;}
	.st7{fill:#D9A420;}
	.st8{fill:#FDFDFD;}
	.st9{fill:#DAA521;}
	.st10{fill:#D8A41B;}
	.st11{fill:#1A1C70;}
	.st12{fill:#1D1C71;}
	.st13{fill:#DBA82A;}
	.st14{fill:#DBA728;}
	.st15{fill:#DDAD36;}
	.st16{fill:#252578;}
	.st17{fill:#FDFDFC;}
	.st18{fill:#FAF1E3;}
	.st19{fill:#DBAA2E;}
	.st20{fill:#DBA829;}
	.st21{fill:#1D1E70;}
	.st22{fill:#DFB64A;}
	.st23{fill:#181A6C;}
	.st24{fill:#DBA41E;}
	.st25{fill:#DBA420;}
	.st26{fill:#D7A425;}
	.st27{fill:#D7A61C;}
	.st28{fill:#181B6C;}
	.st29{fill:#191875;}
</style>
<polygon id="backgroundrect" points="0,0 0,0 0,0 "/>
<g>
	<path id="svg_2" class="st0" d="M39.8,78.9C18.5,78.8,1.3,61.3,1.5,39.8S19,1,40.3,1.2c21.3,0.1,38.5,17.7,38.3,39.1
		C78.5,61.7,61.1,79,39.8,78.9z"/>
	<path id="svg_3" class="st1" d="M39.9,3.5c20-0.1,36.3,16.1,36.5,36.3c0.1,20.2-16,36.6-36.1,36.7S3.9,60.4,3.8,40.3
		c0-0.1,0-0.2,0-0.3C3.9,19.9,20,3.7,39.9,3.5z"/>
	<g>
		<path class="st2" d="M51.6,58.7c-0.3-0.2-0.7-0.4-0.9-0.6C51.1,58,51.6,58.3,51.6,58.7z"/>
		<path class="st3" d="M52.4,65.2c0.2-0.2,0.3-0.3,0.5-0.5c0.1,0.1,0.1,0.2,0.2,0.2c0,0.1,0.1,0.1,0,0.2c-0.1,0.1-0.1,0-0.2,0
			C52.7,65.1,52.6,65.3,52.4,65.2z"/>
		<path class="st3" d="M51.6,65.7c0.2-0.1,0.4-0.3,0.7-0.4C52.2,65.7,52,65.8,51.6,65.7z"/>
		<path class="st3" d="M53.1,64.5c0.1-0.1,0.1-0.2,0.2-0.3c0.1,0,0.2,0.1,0.2,0.2C53.4,64.6,53.2,64.4,53.1,64.5z"/>
		<g>
			<path class="st4" d="M47.3,33c-1.4,0.4-2.7,1-3.8,2c-0.1,0.1-0.2,0.2-0.3,0.3c-0.1,0.5-0.4,0.6-0.8,0.7c-0.2,0-0.5,0-0.7,0
				c-1.2-0.1-2.3-0.1-3.5,0c-0.6,0.1-1.2,0-1.7-0.5c-0.4-0.5-1-0.8-1.4-1.2c-0.8-0.7-1.8-0.9-2.8-1.2c-0.2-0.1-0.5-0.1-0.7-0.1
				c-3.3,0-6.7,0-10,0c-0.2,0-0.5,0-0.7,0c-0.1-0.3,0.2-0.4,0.2-0.6c0.7-0.9,1.4-1.8,2-2.8c0.2-0.3,0.5-0.3,0.9-0.3
				c3.9,0,7.9,0,11.8,0c1.5,0,2.7,0.5,3.9,1.3c0.2,0.2,0.4,0.2,0.6,0c1.2-0.9,2.5-1.4,4.1-1.4c3.8,0.1,7.6,0,11.4,0
				c0.5,0,0.8,0.1,1,0.5c0.7,1.1,1.5,2.1,2.4,3.2c-4,0-7.9,0-11.9,0c0.1-0.3,0.4-0.1,0.6-0.4c2.1-0.1,4.1,0,6.2,0c0.8,0,1.7,0,2.5,0
				c-2.9,0-5.8,0-8.7,0c-0.3,0.2-0.6,0.2-0.9,0.1C47.2,32.8,47.4,32.8,47.3,33z"/>
			<path class="st5" d="M31.6,18.2c0.6-3.6,4-6.6,7.6-6.9c2.8-0.2,5.1,0.5,7.1,2.4c1.5,1.4,2.4,3.2,2.6,5.3c0,0.5,0.1,1,0.1,1.5
				c-0.1,0.5-0.3,0.6-0.7,0.6c-1.1,0-2.3,0-3.4,0c-4.2,0-8.3,0-12.5,0c-0.7,0-0.9-0.3-0.9-0.8C31.4,19.6,31.5,18.9,31.6,18.2
				c0.6,0.2,0.7,0.4,0.3,0.8c0,0-0.1,0.1-0.1,0.2c0,0.1-0.1,0.2,0.1,0.2c0.2,0,0.1,0.3,0.1,0.4c0-0.3-0.1-0.6,0.1-0.9
				C32.3,18.4,32.1,18.2,31.6,18.2z"/>
			<path class="st6" d="M25.6,53.3c0,0.4,0.1,0.7,0.3,1c0.1,0.3,0.1,0.7,0.3,0.9l0,0c0.1,0.3,0.2,0.6,0.4,0.8c1,1.3,1.9,2.7,3.3,3.7
				c0.2,0.1,0.2,0.2,0.2,0.4c-0.2,0.2-0.4,0.4-0.6,0.6c-0.3,0.3-0.6,0.7-0.9,1c-0.2,0.2-0.3,0.4-0.6,0.2c-0.1-0.1-0.2-0.1-0.3-0.2
				c-0.1-0.1-0.2-0.1-0.3-0.2c-0.4-0.5-0.9-1.1-1.4-1.5c0,0-0.1-0.1-0.1-0.1c-0.1-0.2-0.3-0.4-0.5-0.6c-1-1.2-2-2.5-2.3-4.1
				c-0.1-0.4-0.1-0.8-0.3-1.1l0,0c-0.4-6.6-0.1-13.2-0.2-19.9c0-0.4,0.1-0.5,0.5-0.5c0.6,0,1.3,0,1.9,0c0.4,0,0.5,0.1,0.5,0.5
				c0,0.9,0,1.7,0,2.6c0,5.2,0,10.4,0,15.6C25.5,52.9,25.4,53.1,25.6,53.3z"/>
			<path class="st4" d="M57.4,53.5c0,1.6-0.6,2.9-1.4,4.2c-1,1.7-2.4,3.1-3.9,4.4c-0.8,0-1-0.6-1.4-1.1c-0.2-0.4-0.8-0.6-0.7-1
				c0.1-0.3,0.6-0.6,0.9-0.8c0.9-0.9,1.7-1.8,2.5-2.8c0.8-0.8,0.9-1.9,1.2-2.9c0.3-0.7,0.2-1.5,0.2-2.3c0-5.3,0-10.6,0-16
				c0-1.3,0-1.3,1.3-1.3c0.2,0,0.5,0,0.7,0c0.8,0.1,0.8,0.1,0.8,0.9c0,5.5,0,11,0,16.5C57.6,52.1,57.4,52.8,57.4,53.5z"/>
			<path class="st4" d="M30.5,57.7c-1-1.1-1.9-2.3-2.4-3.7c-0.2-0.7-0.3-1.3-0.3-2c0-5.8,0-11.7,0-17.5c0-0.6,0.1-0.8,0.8-0.8
				c0.5,0.1,1,0.1,1.5,0c0.6-0.1,0.8,0.1,0.8,0.7c0,3.2,0,6.5,0,9.7c0,2.4,0.1,4.8,0,7.2c-0.1,1.6,0.6,2.7,1.5,3.8
				c0.3,0.4,0.7,0.8,1.1,1c0.2,0.3-0.1,0.5-0.3,0.7c-0.4,0.4-0.7,0.7-1.1,1.1c-0.6,0.6-0.8,0.6-1.4-0.1
				C30.6,57.9,30.6,57.8,30.5,57.7z"/>
			<path class="st7" d="M30.8,60.9c0.1-0.1,0.2-0.2,0.3-0.3c0.4-0.7,1-1.2,1.6-1.7c0.8-0.8,1.5-1.6,2.3-2.2l0,0
				c0.6-0.9,1.4-1.6,2.2-2.3c0.2-0.3,0.1-0.6,0.1-0.9c0-5.4,0-10.8,0-16.2c0-0.3-0.1-0.6,0.1-0.9c0.3,0,0.3,0.2,0.3,0.4
				c0,0.3,0,0.5,0,0.8c0,5.3,0,10.6,0,16c0,0,0,0,0,0c0-5.3,0-10.6,0-15.9c0-0.4-0.1-0.7,0.2-1c0.4,0.3,0.3,0.7,0.3,1
				c0,5.1,0,10.3,0,15.4c0,0.3,0,0.6,0.1,0.9c0.1,0,0.1,0.1,0.2,0c0.1-0.2,0.1-0.5,0.1-0.8c0-5.5,0-11,0-16.5c0-0.2-0.1-0.4,0.2-0.4
				c0.5,0.2,0.3,0.7,0.3,1c0,3.1,0,6.2,0,9.3c0,2,0,4,0,6.1c0,0.7,0,1.5-0.1,2.2c-0.1,0.7-0.6,1.1-1.1,1.6c-0.7,0.8-1.5,1.4-2.1,2.2
				c-1,1-2.1,2.1-3.1,3.3c5,0,9.8,0,14.7,0c0.2,0,0.4,0,0.5,0.3c0,0.3-0.1,0.5-0.4,0.5c0,0,0,0,0,0c0.8,0.2,1.3,0.1,1.4-0.9
				c0-0.3,0.4-0.4,0.7-0.3c0.1,0,0.1,0,0.2,0.1c0.1,0.1,0.3,0.3,0.4,0.4c0,0.1,0.1,0.1,0.1,0.2c-0.2,0.8,0.5,0.6,0.9,0.7
				c0.3,0.3,0.8,0.4,0.8,0.9c-8,0-16.1,0-24.1,0c-0.1-0.2,0-0.3,0.1-0.4c0.8-0.8,1.7-1.6,2.4-2.5C30.5,61,30.7,61,30.8,60.9z"/>
			<path class="st4" d="M51,55.6c-0.6,1.1-1.5,1.9-2.3,2.9c-0.4,0.2-0.7-0.2-0.9-0.4c-0.5-0.4-0.9-0.8-1.3-1.3
				c0-0.1-0.1-0.1-0.1-0.2c-0.1-0.4,0.2-0.6,0.5-0.8c0.9-0.7,1.5-1.7,2-2.8c0.2-0.3,0.2-0.7,0.2-1c0-5.7,0-11.4,0-17.1
				c0-1,0.1-1.1,1.1-1.1c0.4,0,0.8,0,1.2,0c0.4,0.1,0.6,0.2,0.6,0.7c0,5.6,0,11.2,0,16.7C52,52.8,51.7,54.2,51,55.6z"/>
			<path class="st8" d="M46.5,56.6c0.5,0.5,1,1,1.6,1.5c0.2,0.2,0.3,0.4,0.6,0.3c0,0.3-0.1,0.3-0.3,0.2c-0.2-0.2-0.4,0.1-0.5,0.2
				c-0.1,0.1,0.1,0.3,0.2,0.4c0.4,0.4,0.9,0.8,1.3,1.2c-0.1,0.1-0.1,0.2-0.1,0.3c0.1-0.1,0-0.2,0.1-0.3c0.4,0.1,0.3,0.4,0.2,0.8
				c0.3-0.3,0.6-0.3,0.8,0c0.2,0.2,0.3,0.2,0.4-0.1c0.5,0.3,0.8,0.9,1.4,1.1c0,0.1,0.2,0.2-0.1,0.2c-0.6,0-1-0.4-1.5-0.8
				c-0.1,0.9,0.6,1.1,1,1.5c0.1,0.2,0.2,0,0.2-0.5c0.2,0,0.5,0.1,0.5,0.2c-0.2,0.5,0.3,0.9,0,1.3c0,0-0.1,0-0.2-0.1
				c-0.2-0.4-0.5-0.6-0.8-0.8c-0.4-0.2-0.8-0.5-1-1l0,0c-0.2-0.1-0.3-0.2-0.4-0.4l0,0c-0.4-0.3-0.8-0.7-1.1-1.2
				c-0.1-0.3-0.4-0.5-0.7-0.7c-0.3-0.1-0.6-0.4-0.7-0.7c-0.1-0.2-0.2-0.4-0.4-0.4c-0.3-0.1-0.6-0.4-0.7-0.7
				c-0.1-0.4-0.4-0.4-0.7-0.5c-0.9-0.8-1.7-1.7-2.6-2.6c-0.4-0.4-0.5-1-0.5-1.6c0-5.3,0-10.5,0-15.8c0-0.2,0-0.4,0-0.6
				c0-0.7-0.5-1-1.2-0.8c-0.2,0.1-0.3,0.2-0.3,0.4c0,0.2,0,0.4,0,0.6c0,5.5,0,11,0,16.5c0,0.7,0.2,1.2,0.7,1.8
				c0.8,0.9,1.7,1.7,2.5,2.6c0.2,0.2,0.5,0.5,0.6,0.8c0,0.5-0.1,0.9-0.7,0.8c-0.4,0-0.6-0.1-0.5-0.5c0.1-0.3,0-0.6-0.4-0.5
				c-0.1,0-0.3,0-0.4-0.1c-0.5-0.4-0.8-1-1.5-1.2c0-0.6-0.6-0.9-0.7-1.4c0-0.1,0.1-0.1,0.1-0.2c0,0.1-0.1,0.1-0.1,0.2
				c-0.6,0-0.6-0.1-0.5-0.9c0,0.1,0,0.3-0.1,0.3c-0.2,0-0.2,0-0.2-0.5c0,0.2,0.1,0.5-0.2,0.5c-0.1,0-0.1-0.2-0.2-0.3
				c-0.1,0.3-0.1,0.5-0.2,0.8c0,0.1,0,0.3-0.1,0.3c-0.6,0.3-1,0.9-1.5,1.3c-0.3,0.3-0.7,0.6-1,1c-0.2,0.3-0.4,0.4-0.7,0
				c0.9-1,1.8-2,2.7-2.9c0.1-0.1,0.3-0.3,0.4-0.5c0.1-0.3,0.1-0.7,0.1-1c0-5.6,0-11.3,0-16.9c0-0.3,0.2-0.7-0.3-0.9
				c-0.4-0.2-1.4,0.1-1.6,0.4c0,0-0.1,0-0.1,0c-0.2-1.1-1-1.6-1.8-2.2c-0.1,0-0.1-0.2-0.1-0.2c0.4,0.2,0.8,0.4,1.1,0.8
				c0.5,0.6,1.1,0.8,1.9,0.7c1.4-0.1,2.7,0,4.1,0c0.4,0,0.7-0.1,1-0.4c0.1,0.7-0.1,1.4-0.1,2c-0.1,5.6,0,11.1,0,16.7
				c0,0.8,0.6,1.4,1.1,1.9c0.3,0.3,0.7,0.5,0.9,0.9c0.1,0.2,0.3,0.4,0.6,0.2c0.1-0.1,0.1-0.3,0-0.2c-0.7,0.3-0.5-0.4-0.7-0.6
				c-0.1-0.1-0.2-0.2-0.2-0.3c0.1-0.1,0.3-0.1,0.3-0.1c0.4,0.5,0.8,0.3,1.1,0c0.2-0.2,0.4-0.2,0.5,0.1
				C46.9,56.1,46.3,56.2,46.5,56.6c-0.5,0.3-0.1,0.4,0.1,0.6c0,0,0,0.1,0.1,0.1c0,0-0.1-0.1-0.1-0.2C46.4,57,46.2,56.9,46.5,56.6z"
				/>
			<path class="st9" d="M40.1,22.1c2.6,0,5.3,0,7.9,0c0.5,0,0.6,0.1,0.5,0.7c-0.2,0.7-0.5,0.9-1.2,0.9c-4.8,0-9.7,0-14.5,0
				c-0.6,0-1.3-0.9-1.1-1.4c0.1-0.2,0.4-0.1,0.6-0.1C34.9,22.1,37.5,22.1,40.1,22.1z"/>
			<path class="st10" d="M33.6,25.5c0,0-0.1,0-0.1,0c-0.2-0.1-0.3-0.3-0.5-0.5c0,0-0.1-0.1-0.1-0.1c-0.1-0.1-0.1-0.3,0.1-0.3
				c0.2,0,0.4-0.1,0.6-0.1c4.5,0,8.9,0,13.4,0c0.3,0,0.8-0.1,0.4,0.5c-0.1,0.1-0.1,0.2-0.2,0.3c-0.3,0.3-0.6,0.2-0.9,0.2
				C42,25.5,37.8,25.4,33.6,25.5z"/>
			<path class="st11" d="M57.4,53.5c-0.1-0.5-0.3-0.9,0.1-1.4c0.1-0.1,0-0.4,0-0.6c0-5.6,0-11.3,0-16.9c0-0.4,0.1-0.7-0.6-0.6
				c-0.4,0.1-1-0.1-1.6-0.1c-0.5,0-0.6,0.2-0.5,0.6c0.1,0.2,0,0.5,0,0.7c0,5.2,0,10.5,0,15.7c0,1.6-0.3,3.2-0.9,4.7
				c-0.1,0.3-0.3,0.6-0.6,0.7c1-1.6,1.3-3.3,1.3-5.1c0-5.6,0-11.2,0-16.7c0-0.6,0.1-0.8,0.8-0.8c0.6,0.1,1.1,0,1.7,0
				c0.5,0,0.6,0.2,0.6,0.6c0,2.7,0,5.5,0,8.2c0,3.1,0,6.1,0,9.2C57.7,52.3,57.7,52.9,57.4,53.5z"/>
			<path class="st12" d="M51,55.6c-0.1-0.6,0.3-1,0.5-1.5c0.3-0.9,0.3-1.8,0.3-2.7c0-5.4,0-10.8,0-16.2c0-1.2,0-1.2-1.2-1.2
				c-1.4,0-1.4,0-1.4,1.4c0,5.5,0,10.9,0,16.4c0,0.5,0.3,1-0.3,1.4c0.1-0.4,0.1-0.9,0.1-1.3c0-5.8,0-11.5,0-17.3
				c0-0.6,0.2-0.8,0.8-0.7c0.7,0.1,1.7-0.3,2.2,0.2c0.4,0.4,0.1,1.4,0.1,2.1c0,5.3,0,10.6,0,16C52.1,53.3,51.8,54.5,51,55.6z"/>
			<path class="st13" d="M46.5,26.1c-0.4,0.4-0.7,0.7-1.3,0.7c-3.3,0-6.7,0-10,0c-0.5,0-0.9-0.2-1.3-0.7
				C38.1,26.1,42.2,26.1,46.5,26.1z"/>
			<path class="st14" d="M37.1,36.7c0-0.4,0.2-0.6,0.6-0.6c1.3,0,1.3,0,1.3,1.3c0,5.7,0,11.4,0,17.1c0,0.2,0.1,0.5-0.1,0.7
				c-0.2-0.2-0.4-0.4,0-0.6c0.1-0.1,0-0.3,0-0.5c0-5.6,0-11.2,0-16.9c0-0.3,0-0.6-0.1-0.8c-0.5,0.2-0.9,0.1-1.4,0
				c0,5.7,0,11.5,0,17.2c0,0.4,0.1,0.8-0.3,1.1c-0.1-0.1-0.1-0.3,0-0.4c0-3.4,0-6.9,0-10.3C37.2,41.6,37.1,39.1,37.1,36.7z"/>
			<path class="st15" d="M35.9,27.7c-0.1-0.2-0.4-0.1-0.5-0.5c3.2,0,6.4,0,9.7,0c-0.4,0.3-0.7,0.4-0.9,0.6c-2.6,0.3-5.2,0.2-7.8,0.1
				C36.2,27.9,36,27.8,35.9,27.7z"/>
			<path class="st16" d="M25.6,53.3c-0.3-0.2-0.2-0.5-0.2-0.7c0-6,0-11.9,0-17.9c0-0.7-0.1-0.9-0.8-0.8c-0.6,0.1-1.4-0.3-1.8,0.1
				c-0.4,0.4-0.1,1.2-0.1,1.8c0,5.1,0,10.2,0,15.3c0,0.9,0,1.7,0.2,2.6c0,0.2,0,0.3-0.1,0.5c-0.2-0.8-0.3-1.6-0.3-2.5
				c0-5.8,0-11.6,0-17.3c0-0.5,0.1-0.6,0.6-0.6c0.6,0,1.2,0,1.8,0c0.6,0,0.7,0.2,0.7,0.7c0,4.6,0,9.2,0,13.8
				C25.5,49.9,25.6,51.6,25.6,53.3z"/>
			<path class="st17" d="M35,56.7c-0.5,0.9-1.4,1.5-2.1,2.2c-0.6,0.6-1.1,1.3-1.8,1.7c0-0.3,0-0.6,0.3-0.9c0.2-0.2,0.1-1-0.2-1.1
				c-0.2-0.2-0.4-0.4-0.7-0.5c-0.3-0.2,0-0.2,0-0.3c0.9,0.7,0.9,0.8,1.8-0.1c0.4-0.4,1-0.7,1.1-1.4c0.1,0.3,0.3,0.5,0.7,0.3
				C34.4,56.5,34.7,56.6,35,56.7z"/>
			<path class="st17" d="M30.8,60.9c-0.7,1-1.6,1.8-2.5,2.7c-0.2,0.2-0.4,0.3-0.4,0.5c-0.2,0.2-0.4,0.2-0.6,0
				c-0.4-0.4-0.5-1-0.3-1.3c0.2-0.4,0.6,0.5,0.9,0.1c0.1-0.2-0.1-0.2-0.2-0.2c-0.1-0.1-0.3-0.1-0.3-0.3c0.1-0.3,0.2-0.1,0.3-0.1
				c0.3,0,0-0.2,0.1-0.3c0.7-0.2,1-0.9,1.5-1.3c0.2-0.2,0.3-0.4,0.5-0.5c0.1-0.2-0.1-0.3-0.1-0.4c0.1-0.1,0.2-0.3,0.3-0.1
				c0.1,0.3,0.6,0.4,0.4,0.7C30.2,60.8,30.6,60.8,30.8,60.9z"/>
			<path class="st18" d="M35.9,27.7c0.3,0.1,0.5,0.2,0.8,0.2c2.5,0,5,0,7.5,0c-0.5,0-0.7,0.6-1.3,0.5c0-0.1-0.1-0.1-0.2-0.1
				c-1.7,0.1-3.4,0.1-5,0c-0.1,0-0.2,0-0.2,0.1C36.9,28.3,36.4,28,35.9,27.7z"/>
			<path class="st19" d="M47.3,25c0.2-0.6-0.3-0.4-0.5-0.4c-3.6,0-7.1,0-10.7,0c-0.8,0-1.7,0-2.5,0c-0.3,0-0.6-0.1-0.7,0.3
				c-0.1-0.1-0.3-0.3,0-0.4c0.1,0,0.2,0,0.3,0c4.6,0,9.2,0,13.9,0c0.2,0,0.4-0.1,0.5,0.1C47.7,24.7,47.5,24.9,47.3,25z"/>
			<path class="st19" d="M33.6,25.5c0.2-0.2,0.5-0.1,0.7-0.1c3.9,0,7.9,0,11.8,0c0.3,0,0.7,0,1-0.1c-0.1,0.3-0.3,0.3-0.6,0.3
				c-4.3,0-8.5,0-12.8,0C33.7,25.5,33.6,25.5,33.6,25.5z"/>
			<path class="st17" d="M37.1,54.3c0,0.1,0,0.3,0,0.4c-0.7,0.7-1.4,1.3-2.1,2c0.2-0.3-0.5-0.4-0.2-0.7c0.2-0.3,0.4-0.7,0.9-0.5
				c0.2,0.1,0.2,0,0.1-0.3c-0.1-0.2,0.4-0.8,0.7-0.8C36.7,54.3,36.9,54.3,37.1,54.3z"/>
			<path class="st20" d="M42.5,28.4c-1.6,0.5-3.2,0.5-4.8,0c0-0.2,0.2-0.2,0.3-0.2c1.4,0,2.8,0,4.3,0C42.4,28.2,42.5,28.2,42.5,28.4
				z"/>
			<path class="st21" d="M21.1,32.3c0,0.2-0.1,0.3-0.2,0.6c0.8,0,1.6,0,2.3,0c2.8,0,5.6,0,8.4,0c0.2,0,0.5-0.1,0.7,0.1
				c-3.9,0-7.8,0-11.8,0C20.8,32.6,20.9,32.4,21.1,32.3z"/>
			<path class="st22" d="M42.5,28.4c-0.1-0.2-0.3-0.1-0.5-0.1c-1.3,0-2.5,0-3.8,0c-0.2,0-0.4,0-0.5,0.1c-0.1,0-0.2,0-0.3,0
				c-0.3-0.3-0.1-0.3,0.1-0.3c1.6,0,3.1,0,4.7,0c0.3,0,0.5-0.1,0.7,0c0.3,0.1-0.1,0.2-0.1,0.2C42.8,28.4,42.6,28.4,42.5,28.4z"/>
			<path class="st17" d="M27.5,61.7c0.1,0.1,0.1,0.1,0.2,0.2C27.3,62,27,62.5,26.7,62c-0.1-0.2,0-0.6,0.1-0.9
				C27.1,61.2,27.3,61.5,27.5,61.7z"/>
			<path class="st3" d="M57.5,68.6c-0.3-0.1-0.6,0.4-1,0.1c0.2,0,0.5-0.1,0.4-0.4c-0.1-0.4,0.3-0.3,0.5-0.5
				C57.2,68.1,57.4,68.3,57.5,68.6z"/>
			<path class="st16" d="M27.5,61.7c-0.2-0.2-0.4-0.4-0.6-0.5c-0.3-0.3-0.6-0.7-0.9-1C26.6,60.5,27.1,61,27.5,61.7z"/>
			<path class="st23" d="M47.9,32.7c-0.1,0.1-0.3,0.2-0.4,0.3c0,0-0.1,0-0.1,0c-0.2-0.1-0.4-0.2-0.5-0.4
				C47.2,32.6,47.6,32.6,47.9,32.7z"/>
			<path class="st16" d="M22.8,54.2c0.2,0.4,0.4,0.7,0.3,1.1C22.8,55,22.8,54.6,22.8,54.2z"/>
			<path class="st3" d="M55.9,68.5c-0.2-0.1-0.5,0-0.7-0.2c0.2,0,0.5-0.2,0.7-0.1C56.3,68.3,55.8,68.4,55.9,68.5z"/>
			<path class="st16" d="M26.5,56.1c-0.3-0.2-0.4-0.5-0.4-0.8C26.3,55.5,26.4,55.8,26.5,56.1z"/>
			<path class="st16" d="M26.1,55.3c-0.3-0.2-0.3-0.6-0.3-0.9C26,54.6,26.1,55,26.1,55.3z"/>
			<path class="st16" d="M25.4,59.4c0.3,0.1,0.5,0.2,0.5,0.6C25.6,59.8,25.5,59.6,25.4,59.4z"/>
			<path class="st19" d="M33,25c0.2,0.1,0.4,0.2,0.5,0.5C33.1,25.4,33.1,25.2,33,25z"/>
			<path class="st23" d="M47.9,32.6c0.4-0.2,9.1-0.3,9.8,0C54.4,32.6,51.2,32.6,47.9,32.6z"/>
			<path class="st24" d="M48.3,20.8c-2.8,0.4-15.5,0.2-15.9,0C37.7,20.8,43,20.8,48.3,20.8z"/>
			<path class="st24" d="M31.6,18.2c0.2,0,0.4-0.3,0.5-0.1c0.1,0.2,0.4,0.5,0.1,0.8c-0.3,0.3-0.2,0.8-0.2,1.2
				c-0.3-0.2-0.1-0.4-0.2-0.6c-0.2,0-0.1,0.3-0.3,0.3c0,0-0.1-0.1-0.1-0.1c0.2-0.2-0.1-0.7,0.4-0.9C32.3,18.5,31.7,18.4,31.6,18.2
				C31.6,18.2,31.6,18.2,31.6,18.2z"/>
			<path class="st24" d="M31.5,20.3c0.3,0.2,0.2,0.4,0.2,0.7C31.6,20.6,31.6,20.5,31.5,20.3z"/>
			<path class="st16" d="M29.9,60.2c-0.1,0.2-0.3,0.4-0.5,0.5C29.5,60.5,29.6,60.3,29.9,60.2z"/>
			<path class="st11" d="M57.1,34.7c0,5.8,0,11.5,0,17.3c0,0,0,0-0.1,0C57,46.2,57,40.4,57.1,34.7C57,34.6,57.1,34.6,57.1,34.7z"/>
			<path class="st1" d="M35.8,58.6c0.2,0.1,0.4,0.2,0.6-0.1c0.3-0.4,0.5-1.1,1.2-1c0.1,0,0.3-0.2,0.2-0.4c-0.2-0.5,0.2-0.6,0.5-0.6
				c0.5,0,0.6-0.3,0.7-0.7c0-0.3,0.1-0.6,0.3-0.9c0.2,0.1,0,0.3,0.2,0.4c0.2-0.3,0-0.6,0-0.9c0.3,0.3,0.3,0.6,0.4,0.9
				c0.1,0,0.1-0.1,0.1-0.2c0-0.2,0-0.4,0.3-0.3c0.2,0.1,0.2,0.2,0.1,0.4c-0.3,0.5-0.2,0.6,0.4,0.8c0,0.5,0.2,0.6,0.7,0.4
				c-0.2,0.7-0.2,1.3,0.8,1.3c0.2,0,0.2,0.2,0.2,0.4c0.2,0.4,0.4,0.8,1,0.6c0.5-0.1,0.4,0.4,0.5,0.7c0,0.1-0.2,0.2-0.2,0.4
				c0.5,0.2,0.8,0,1.1-0.4c0.2-0.1,0.3,0,0.5,0.2c0.8,0.7,1.5,1.5,2.2,2.3c0.1,0.1,0.4,0.3,0.1,0.6c-4.8,0-9.6,0-14.4,0
				c-0.2,0-0.5,0-0.8,0C33.5,60.9,34.6,59.7,35.8,58.6z"/>
			<path class="st9" d="M47.6,62.3c-0.2-0.7-0.8-0.9-1.2-1.4c-0.5-0.6-1-1.2-1.6-1.6c-1.1-1.4-2.4-2.5-3.6-3.8
				c-0.2-0.3-0.3-0.5-0.3-0.8c0-6,0-11.9,0-17.9c0-0.5,0.2-0.6,0.6-0.6c1.5,0,1.3-0.1,1.3,1.2c0,5.5,0,11,0,16.5
				c0,0.5,0.1,0.9,0.5,1.2c0.9,0.9,1.8,1.8,2.7,2.7c0.2,0.1,0.3,0.2,0.4,0.4c0.2,0.3,0.4,0.5,0.7,0.7c0.2,0.1,0.3,0.2,0.4,0.4
				c0.2,0.3,0.4,0.5,0.7,0.7c0.3,0.2,0.5,0.4,0.7,0.7c0.3,0.5,0.8,0.7,1,1.2c-0.7-0.1-0.9,0.3-0.9,0.9c0,0.3-0.2,0.5-0.5,0.5
				c-0.5,0-0.9-0.3-1.4-0.3C47.7,62.7,47.8,62.6,47.6,62.3z"/>
			<path class="st25" d="M37.4,36.4c0.3-0.1,1-0.1,1.4,0c-0.2,0.3,0,0.5,0,0.8c0,5.6,0,11.3,0,16.9c0,0.1,0.2,0.6-0.3,0.2
				c-0.1-0.2-0.1-0.5-0.1-0.7c0-5.6,0-11.2,0-16.8c0,5.6,0,11.2,0,16.8c0,0.2,0.1,0.5-0.1,0.7c-0.5,0-0.3-0.4-0.3-0.6
				c0-1.7,0-3.5,0-5.2c0-3.6,0-7.3,0-10.9c0-0.2,0-0.5,0-0.7c0,0-0.1,0-0.1,0c0,0.2,0,0.5,0,0.7c0,5.3,0,10.6,0,16
				c0,0.3,0.1,0.6-0.1,0.8c-0.1-0.1-0.1-0.3-0.1-0.5c0-5.6,0-11.2,0-16.8c0-0.1,0-0.2,0-0.2c0,0.3,0,0.6,0,0.9c0,5.2,0,10.4,0,15.6
				c0,0.2,0.1,0.5-0.1,0.7c-0.2-0.2-0.1-0.5-0.1-0.8c0-5.4,0-10.7,0-16.1C37.5,36.9,37.6,36.6,37.4,36.4z"/>
			<path class="st26" d="M37.7,54c0-5.7,0-11.5,0-17.2c0,0,0.1,0,0.1,0c0,5.8,0,11.6,0,17.5C37.7,54.3,37.7,54.1,37.7,54z"/>
			<path class="st27" d="M38.4,54.3c0-5.8,0-11.6,0-17.5c0,0,0.1,0,0.1,0c0,5.8,0,11.6,0,17.5C38.5,54.3,38.4,54.3,38.4,54.3
				L38.4,54.3z"/>
			<path class="st9" d="M50.2,62.3c0.4,0.3,0.7,0.6,1,1c-0.1,0-0.2,0-0.3,0C50,63.3,49.9,63.1,50.2,62.3z"/>
			<path class="st9" d="M49.8,61.9c0.2,0.1,0.3,0.2,0.4,0.4C50,62.3,49.8,62.2,49.8,61.9z"/>
			<path class="st28" d="M51.5,52.1c0.1,0.2-0.2,0.2-0.2,0.3c-0.1-0.1-0.1-0.2-0.1-0.3c0-5.8,0-11.5,0-17.3c0-0.1,0-0.3,0-0.4
				c0,0,0,0,0,0c0.1,0,0.1,0.1,0.1,0.1c0.1,0.2,0.1,0.5,0.1,0.7c0,5.4,0,10.8,0,16.1C51.4,51.6,51.3,51.9,51.5,52.1z"/>
			<path class="st29" d="M51.5,52.1c-0.2-0.2-0.1-0.5-0.1-0.8c0-5.6,0-11.2,0-16.9c0.2,0.2,0.1,0.5,0.1,0.8
				C51.5,40.9,51.5,46.5,51.5,52.1z"/>
			<path class="st1" d="M43,36.9c0,5.8,0,11.5,0,17.3c0,0,0,0-0.1,0C43,48.4,43,42.6,43,36.9C43,36.8,43,36.9,43,36.9z"/>
			<path class="st1" d="M48.8,60.7c-0.3-0.2-0.5-0.4-0.7-0.7C48.5,60,48.8,60.2,48.8,60.7z"/>
			<path class="st1" d="M46.6,57.2c-0.3,0-0.5-0.2-0.5-0.4c0-0.3,0.2-0.2,0.4-0.2c0,0,0,0,0,0C46.3,56.9,46.5,57,46.6,57.2z"/>
			<path class="st1" d="M47,57.5c0,0.1-0.1,0.2-0.2,0.2c-0.1,0-0.2-0.1-0.2-0.2c0-0.1,0-0.2,0.2-0.2C46.9,57.2,46.9,57.3,47,57.5z"
				/>
			<path class="st1" d="M41,55.6c0,0,0.1,0.1,0.2,0.3c0,0.1-0.1,0.2-0.2,0.2c-0.1,0-0.3,0.1-0.3-0.2C40.7,55.7,40.7,55.6,41,55.6z"
				/>
			<path class="st1" d="M46.3,58.2c-0.2-0.1-0.3-0.2-0.4-0.4C46.2,57.7,46.4,57.8,46.3,58.2z"/>
			<path class="st1" d="M47.5,59.3c-0.2-0.1-0.3-0.2-0.4-0.4C47.3,58.8,47.4,58.9,47.5,59.3z"/>
			<path class="st1" d="M47.5,58.3c-0.1,0-0.2-0.1-0.2-0.2c0-0.1,0-0.2,0.1-0.1c0.1,0,0.2,0.1,0.2,0.2
				C47.7,58.3,47.6,58.3,47.5,58.3z"/>
			<path class="st1" d="M49.4,60.8c-0.2-0.1-0.3-0.2-0.2-0.4c0,0,0.1,0,0.2-0.1C49.4,60.5,49.4,60.7,49.4,60.8z"/>
		</g>
	</g>
</g>
</svg>
