<svg xmlns="http://www.w3.org/2000/svg" xmlns:xlink="http://www.w3.org/1999/xlink" version="1.1" style="" xml:space="preserve" width="512" height="512"><rect id="backgroundrect" width="100%" height="100%" x="0" y="0" fill="none" stroke="none"/>




















<g class="currentLayer" style=""><title>Layer 1</title><g id="svg_1" class="selected" fill="#f9db63" fill-opacity="1">
	<polygon style="" points="105.13,237.382 39.548,123.791 105.13,10.199 236.295,10.199 301.878,123.791    236.295,237.382  " id="svg_2" fill="#f9db63" fill-opacity="1"/>
	<polygon style="" points="302.302,352.029 236.72,238.437 302.302,124.845 433.467,124.845 499.049,238.437    433.467,352.029  " id="svg_3" fill="#f9db63" fill-opacity="1"/>
	<polygon style="" points="78.533,501.801 12.951,388.209 78.533,274.618 209.698,274.618 275.28,388.209    209.698,501.801  " id="svg_4" fill="#f9db63" fill-opacity="1"/>
</g><path d="M115.47,172.939c-2.817-4.877-9.053-6.55-13.932-3.733c-4.878,2.816-6.55,9.054-3.733,13.932l14.828,25.682  c1.89,3.272,5.317,5.101,8.843,5.101c1.73,0,3.484-0.441,5.089-1.368c4.878-2.816,6.55-9.054,3.733-13.932L115.47,172.939z" id="svg_5" class="" fill-opacity="1" fill="#ffb733"/><path d="M97.467,141.756l-10.373-17.965l42.914-74.33c2.817-4.878,1.145-11.116-3.733-13.932c-4.88-2.816-11.117-1.145-13.932,3.733  l-45.859,79.429c-1.822,3.156-1.822,7.044,0,10.199l13.317,23.064c1.89,3.272,5.317,5.101,8.843,5.101  c1.73,0,3.484-0.441,5.089-1.368C98.613,152.872,100.284,146.634,97.467,141.756z" id="svg_6" class="" fill-opacity="1" fill="#ffb733"/><path d="M507.882,233.337L442.3,119.746c-1.822-3.156-5.189-5.1-8.832-5.1H308.375L245.129,5.1c-1.822-3.156-5.189-5.1-8.833-5.1  H105.13c-3.643,0-7.011,1.944-8.833,5.1L30.716,118.691c-1.822,3.156-1.822,7.044,0,10.199l65.582,113.593  c1.822,3.156,5.189,5.1,8.833,5.1h125.093l63.246,109.547c1.822,3.156,5.189,5.1,8.833,5.1h131.165c3.643,0,7.011-1.944,8.832-5.1  l65.582-113.593C509.703,240.381,509.703,236.493,507.882,233.337z M51.325,123.791l59.694-103.392h119.389l59.693,103.392  l-59.693,103.393H111.019L51.325,123.791z M427.579,341.829H308.191l-59.694-103.392l59.694-103.392h119.388l59.693,103.392  L427.579,341.829z" id="svg_7" class="" fill-opacity="1" fill="#ffb733"/><path d="M218.53,269.517c-1.822-3.156-5.189-5.1-8.833-5.1H78.533c-3.643,0-7.011,1.944-8.833,5.1L4.118,383.11  c-1.822,3.156-1.822,7.044,0,10.199L69.7,506.9c1.822,3.156,5.189,5.1,8.833,5.1h131.165c3.643,0,7.011-1.944,8.833-5.1  l65.583-113.592c1.822-3.156,1.822-7.044,0-10.199L218.53,269.517z M203.809,491.602H84.421L24.728,388.209l59.693-103.393h119.388  l59.694,103.393L203.809,491.602z" id="svg_8" class="" fill-opacity="1" fill="#ffb733"/><g id="svg_9">
</g><g id="svg_10">
</g><g id="svg_11">
</g><g id="svg_12">
</g><g id="svg_13">
</g><g id="svg_14">
</g><g id="svg_15">
</g><g id="svg_16">
</g><g id="svg_17">
</g><g id="svg_18">
</g><g id="svg_19">
</g><g id="svg_20">
</g><g id="svg_21">
</g><g id="svg_22">
</g><g id="svg_23">
</g></g></svg>